<svg width="59" height="75" xmlns="http://www.w3.org/2000/svg"><g fill="none" fill-rule="evenodd"><rect fill="#FFF" width="44" height="75" rx="4"/><g transform="translate(1 6)" fill-rule="nonzero"><g transform="translate(0 54.976)" fill="#004760"><path d="M9.616 7.76c0-.22-.221-.439-.553-.439H8.29v.768h.774c.332.11.553 0 .553-.33zm15.363-4.278c0-.658-.442-1.097-1.105-1.097h-.663V4.69h.663c.663 0 1.105-.549 1.105-1.207z"/><path d="M4.31052632 3.81129032L5.30526316 3.81129032 4.75263158 2.60483871z"/><path d="M16.579 2.385h-.774v1.097h.774c.442 0 .663-.22.663-.548 0-.33-.22-.549-.663-.549zM9.284 8.856H8.29v.878h.995c.332 0 .553-.11.553-.439 0-.22-.221-.439-.553-.439zm27.742-6.47h-.663v2.303h.663c.663 0 1.106-.439 1.106-1.097 0-.768-.443-1.207-1.106-1.207z"/><path d="M0 .082v9.871c0 1.645 1.437 3.071 3.095 3.071h35.81c1.658 0 3.095-1.426 3.095-3.07V.081H0zm26.637 1.536h.774v3.729h-.774v-3.73zm-4.2 0h1.437c1.215 0 1.99.767 1.99 1.864s-.775 1.865-1.99 1.865h-1.437v-3.73zM5.857 5.347l-.33-.768H3.978l-.332.768h-.884l1.658-3.73h.774l1.658 3.73h-.995zm1.106-1.865c0-1.097.774-1.974 1.99-1.974.663 0 1.105.22 1.436.548l-.552.549c-.332-.22-.553-.439-.995-.439-.663 0-1.105.549-1.105 1.207s.442 1.206 1.105 1.206c.442 0 .663-.22.995-.439l.552.549c-.442.438-.773.658-1.547.658-1.105.11-1.879-.768-1.879-1.865zm3.758 5.923c0 .658-.553.987-1.437.987H7.516v-3.73h1.768c.442 0 .774.11.995.33.221.22.221.329.221.658 0 .439-.221.658-.442.768.331.22.663.438.663.987zm.11-5.923c0-1.097.774-1.974 1.99-1.974.663 0 1.105.22 1.437.548l-.553.549c-.331-.22-.552-.439-.994-.439-.664 0-1.106.549-1.106 1.207s.442 1.206 1.106 1.206c.442 0 .663-.22.994-.439l.553.549c-.442.438-.774.658-1.547.658-1.106.11-1.88-.768-1.88-1.865zm3.758 5.265c0 1.097-.663 1.645-1.657 1.645-.995 0-1.658-.548-1.658-1.645V6.663h.884v2.084c0 .658.331.877.774.877.552 0 .773-.329.773-.877V6.553h.774v2.194h.11zm3.537.548c0 .768-.552 1.207-1.437 1.207-.552 0-1.105-.22-1.547-.549l.442-.548c.332.329.663.439 1.105.439.332 0 .553-.11.553-.33 0-.219-.11-.329-.774-.438-.773-.22-1.215-.439-1.215-1.097 0-.658.552-1.097 1.326-1.097.553 0 .995.22 1.437.439l-.442.658c-.332-.22-.663-.329-.995-.329-.332 0-.442.11-.442.329 0 .22.11.33.774.439.773 0 1.215.22 1.215.877zm-.884-3.948l-.774-1.207h-.663v1.207h-.773v-3.73H16.8c.442 0 .884.11 1.105.33.221.22.332.548.332.877 0 .549-.332.987-.774 1.207l.884 1.316h-1.105zm1.547-3.73h2.874v.768h-1.99v.768h1.77v.768h-1.77v.768h1.99v.658H18.79v-3.73zm.995 8.775H18.9v-3.73h.884v3.73zm4.2 0h-.663l-1.879-2.413v2.413h-.774v-3.73h.774l1.769 2.304V6.663h.773v3.729zm3.758 0h-2.874v-3.73h2.874v.769h-1.99v.767h1.77v.768h-1.77v.768h1.99v.658zm3.537-1.097c0 .768-.553 1.207-1.326 1.207-.553 0-1.106-.22-1.548-.549l.442-.548c.332.329.664.439 1.106.439.331 0 .552-.11.552-.33 0-.219-.11-.329-.773-.438-.774-.22-1.216-.439-1.216-1.097 0-.658.552-1.097 1.326-1.097.553 0 .995.22 1.437.439l-.442.658c-.332-.22-.663-.329-.995-.329-.331 0-.442.11-.442.329 0 .22.11.33.774.439.663 0 1.105.22 1.105.877zm0-6.91h-1.105v2.962H29.4V2.385h-1.105v-.767h3.094v.767h-.11zm3.316 6.91c0 .768-.553 1.207-1.327 1.207-.552 0-1.105-.22-1.547-.549l.442-.548c.332.329.663.439 1.105.439.332 0 .553-.11.553-.33 0-.219-.11-.329-.774-.438-.773-.22-1.215-.439-1.215-1.097 0-.658.552-1.097 1.326-1.097.553 0 .995.22 1.437.439l-.442.658c-.332-.22-.664-.329-.995-.329-.332 0-.442.11-.442.329 0 .22.11.33.773.439.664 0 1.106.22 1.106.877zm.22-3.948h-2.873v-3.73h2.874v.768h-1.99v.768h1.769v.768h-1.769v.768h2.1v.658h-.11zm4.2-1.865c0 1.097-.773 1.865-1.989 1.865H35.59v-3.73h1.437c1.106 0 1.99.878 1.99 1.865z"/></g><path fill="#005E88" d="M31.1684211 32.2451613L11.3842105 32.2451613 10.6105263 34.5483871 15.9157895 34.5483871 16.9105263 37.8387097 25.6421053 37.8387097 26.6368421 34.5483871 31.9421053 34.5483871z"/><path d="M14.59 18.974c-.774.987-.995 2.194-.885 3.51a5.027 5.027 0 0 0 1.88 3.07l4.752 3.4c.22.22.442.44.442.769s0 .658-.221.877l.663.548 2.542-3.4a4.774 4.774 0 0 0 .884-2.742c0-.219 0-.548-.11-.767a5.027 5.027 0 0 0-1.88-3.071l-4.752-3.4c-.22-.22-.442-.439-.442-.768v-.22c0-.219.11-.438.221-.657l-.663-.549-2.432 3.4z" fill="#0D769B"/><path d="M18.016 17.658c-.221-.22-.442-.439-.442-.768v-.219c0-.22.11-.439.22-.658l-.662-.548-2.543 3.4c-.773.987-.994 2.193-.884 3.51a5.027 5.027 0 0 0 1.88 3.07l4.752 3.4c.22.22.442.439.442.768s0 .658-.221.877l.663.549 2.542-3.4" fill="#005E88"/><path d="M17.463 5.265c-.884 1.206-1.326 2.522-1.326 3.948 0 .329 0 .768.11 1.097.332 1.755 1.216 3.29 2.764 4.387l5.968 4.277c.774.549 1.326 1.426 1.437 2.303v.549c0 .768-.221 1.535-.663 2.084l.552.438 4.753-6.47a6.367 6.367 0 0 0 1.216-5.046c-.332-1.755-1.216-3.29-2.763-4.387L22.326 3.29c-.442-.329-.773-.767-.884-1.316-.11-.548 0-1.097.332-1.535L21.22 0l-3.758 5.265z" fill="#0D769B"/><path d="M22.326 3.29c-.442-.329-.773-.767-.884-1.316-.11-.548 0-1.097.332-1.535L21.22 0l-3.758 5.265c-.884 1.206-1.326 2.522-1.326 3.948 0 .329 0 .768.11 1.097.332 1.755 1.216 3.29 2.764 4.387l5.968 4.277c.774.549 1.326 1.426 1.437 2.303v.549c0 .768-.221 1.535-.663 2.084l.552.438 4.753-6.47" fill="#005E88"/><g transform="translate(5.25 3.565)" fill="#004760"><path d="M15.529 27.145c.553-.768.884-1.645.884-2.632 0-.22 0-.548-.11-.768a5.027 5.027 0 0 0-1.88-3.07l-4.752-3.4c-.221-.22-.442-.44-.442-.769v-.219c0-.22.11-.439.221-.658l-.11-.11c-.664.987-.995 2.194-.774 3.4a5.027 5.027 0 0 0 1.879 3.071l4.752 3.4c.221.22.442.439.442.768 0 .33 0 .658-.22.877l.11.11zm8.29-14.697c-.332-1.754-1.216-3.29-2.764-4.387l-7.184-5.155c-.442-.329-.774-.767-.884-1.316-.11-.548 0-1.096.331-1.535L12.103 1.7c-.885 1.206-1.327 2.523-1.327 3.948 0 .33 0 .768.11 1.097.332 1.755 1.217 3.29 2.764 4.387l5.968 4.278c.774.548 1.327 1.425 1.437 2.303v.548c0 .768-.22 1.536-.663 2.084l2.1-2.961c1.216-1.316 1.658-3.071 1.326-4.936zM.054 36.248h5.416c1.326 0 2.432.33 3.095.987.552.549.773 1.207.773 1.975 0 1.316-.663 2.084-1.547 2.522 1.326.549 2.21 1.316 2.21 2.852 0 2.084-1.768 3.18-4.42 3.18H.055V36.249zm4.863 4.717c1.106 0 1.88-.33 1.88-1.207 0-.768-.553-1.206-1.659-1.206H2.487v2.413h2.431zm.664 4.606c1.105 0 1.879-.439 1.879-1.206 0-.768-.553-1.317-1.88-1.317H2.488v2.523h3.095z"/></g><path d="M16.358 39.813h5.416c1.326 0 2.431.329 3.094.987.553.548.774 1.206.774 1.974 0 1.316-.663 2.084-1.547 2.523 1.326.548 2.21 1.316 2.21 2.851 0 2.084-1.768 3.181-4.42 3.181h-5.527V39.813zm4.863 4.716c1.105 0 1.879-.329 1.879-1.206 0-.768-.553-1.207-1.658-1.207H18.79v2.413h2.432zm.663 4.606c1.105 0 1.88-.438 1.88-1.206s-.553-1.316-1.88-1.316H18.79v2.522h3.095z" fill="#005E88"/><path d="M27.41 39.813h5.416c1.327 0 2.432.329 3.095.987.553.548.774 1.206.774 1.974 0 1.316-.663 2.084-1.548 2.523 1.327.548 2.21 1.316 2.21 2.851 0 2.084-1.768 3.181-4.42 3.181H27.41V39.813zm4.864 4.716c1.105 0 1.879-.329 1.879-1.206 0-.768-.553-1.207-1.658-1.207h-2.542v2.413h2.32zm.663 4.606c1.105 0 1.768-.438 1.768-1.206s-.552-1.316-1.879-1.316h-2.984v2.522h3.095z" fill="#0D769B"/><path fill="#004760" d="M10.9421053 33.4516129L10.6105263 34.5483871 15.9157895 34.5483871 16.9105263 37.8387097 25.6421053 37.8387097 26.6368421 34.5483871 31.9421053 34.5483871 31.6105263 33.4516129z"/></g><g transform="translate(32 18)"><circle fill="#005E88" cx="13.5" cy="13.5" r="13.5"/><path d="M9.237 5h3.773l3.217 16h-3.134l-.619-3.516H9.835L9.195 21H6L9.237 5zm2.907 10.47l-1.01-6.44-.99 6.44h2zm6.763-1.759H15.96v-1.817h2.948V8.793h2.103v3.1H24v1.818h-2.99v3.18h-2.103v-3.18z" fill="#FFF" fill-rule="nonzero"/></g></g></svg>