<svg width="111" height="62" xmlns="http://www.w3.org/2000/svg"><defs><linearGradient x1="0%" y1="50%" y2="50%" id="a"><stop stop-color="#A31955" offset="0%"/><stop stop-color="#FA730D" offset="100%"/></linearGradient></defs><g fill="none" fill-rule="evenodd"><path d="M14.219 0h82.562C104.634 0 111 6.06 111 13.535v34.93C111 55.94 104.634 62 96.781 62H14.219C6.366 62 0 55.94 0 48.465v-34.93C0 6.06 6.366 0 14.219 0z" fill="#ECECEC" fill-rule="nonzero"/><path d="M14.282 1C6.946 1 1 6.645 1 13.609V48.39C1 55.355 6.946 61 14.282 61h82.436C104.054 61 110 55.355 110 48.391V13.61C110 6.645 104.054 1 96.718 1H14.282z" fill="#FFF" fill-rule="nonzero"/><path fill="#ECECEC" d="M1 27H111V28H1z"/><path d="M84.122 19.214h.095c.11 0 .205-.042.205-.15 0-.072-.055-.144-.205-.144h-.095v.294zm-.133.474v-.852c.072-.012.139-.024.239-.024.122 0 .205.03.255.066.056.036.078.096.078.18 0 .108-.072.18-.167.204v.006c.078.012.128.084.145.21a.54.54 0 0 0 .055.21h-.15a.65.65 0 0 1-.055-.222c-.017-.108-.072-.144-.178-.144h-.094v.36l-.128.006zm-.328-.45c0 .36.272.636.606.636.333 0 .594-.282.594-.636 0-.354-.261-.636-.594-.636-.334 0-.606.282-.606.636zm1.339 0a.746.746 0 0 1-.739.762.694.694 0 0 1-.516-.216.81.81 0 0 1-.223-.546c0-.42.334-.756.74-.756.41 0 .738.336.738.756zm-13.65-5.412c-.822 0-1.111.456-1.111 1.02v2.076c0 .57.289 1.026 1.111 1.026.822 0 1.111-.456 1.111-1.026v-2.07c0-.57-.289-1.02-1.111-1.02v-.006zm8.894 6.06l-2.222-3.756v3.75H75.59V8.612l2.433-.408v7.26l2.222-3.57h2.634l-2.428 3.888 2.428 4.098-2.634.006zm-5.35-3.198c0 1.668-.683 3.294-3.533 3.294-2.855 0-3.555-1.62-3.555-3.294v-1.614c0-1.668.7-3.294 3.555-3.294 2.85 0 3.533 1.62 3.533 3.3v1.608zm-7.777 0c0 1.668-.678 3.294-3.534 3.294-2.855 0-3.555-1.62-3.555-3.294v-1.614c0-1.668.7-3.294 3.555-3.294 2.856 0 3.54 1.62 3.54 3.3l-.006 1.608zm-7.79-.048c0 1.938-.544 3.348-3.86 3.348-1.195 0-1.9-.108-3.223-.312V8.618l2.428-.414v3.87c.528-.198 1.206-.3 1.822-.3 2.434 0 2.834 1.104 2.834 2.874v1.992zm-12.35-.036v.168c0 .93.334 1.176 1.417 1.176.978 0 1.578-.048 2.834-.27v1.998c-1.211.252-1.845.318-3.034.318-2.61 0-3.644-1.386-3.644-3.39v-1.638c0-1.752.767-3.186 3.444-3.186 2.667 0 3.44 1.416 3.44 3.18v1.644h-4.456zm-5.371-2.778c-1.09 0-1.423.24-1.423 1.176v1.77c0 .93.334 1.176 1.423 1.176.605 0 .966-.048 2.222-.27v1.998c-.797.2-1.61.306-2.428.318-2.611 0-3.644-1.386-3.644-3.39V15.17c0-2.004 1.038-3.39 3.644-3.39.611 0 1.328.06 2.433.312v1.998c-.733-.16-1.479-.25-2.227-.264zm-6.69 6.072l-.088-.516a4.6 4.6 0 0 1-2.29.6c-1.482 0-2.277-1.002-2.277-2.388 0-1.638.922-2.22 2.572-2.22h1.678v-.354c0-.834-.094-1.08-1.361-1.08h-2.078l.206-2.046h2.266c2.784 0 3.395.888 3.395 3.144v4.86h-2.022zm-8.705-.018v-5.94H25v-2.046h1.217v-1.23C26.217 8.996 26.9 8 28.844 8h1.623v2.046h-1.011c-.762 0-.812.288-.812.822v1.02h1.834l-.211 2.052h-1.623v5.94h-2.433zm36.25-5.028v2.07c0 .57.283 1.026 1.111 1.026.817 0 1.111-.456 1.111-1.026v-2.07c0-.57-.294-1.02-1.11-1.02-.829 0-1.112.45-1.112 1.02zm-29.767 2.706c0 .45.206.684.667.684.5 0 .795-.162 1.156-.33v-.9h-1.084c-.516 0-.739.096-.739.546zm15.3-3.936c-.827 0-1.016.456-1.016 1.02v.324h2.028v-.318c0-.57-.19-1.026-1.012-1.026zm6.678.54v3.78c.35.036.55.036.878.036 1.189 0 1.35-.552 1.35-1.32v-1.806c0-.57-.183-1.02-1.011-1.02-.5 0-.85.162-1.217.33z" fill="#17356E" fill-rule="nonzero"/><g transform="translate(13 35)" fill-rule="nonzero"><path d="M67.045 15.73c-.198.253-.477.446-.835.577-.388.135-.798.2-1.21.193-.466 0-.875-.099-1.233-.303a2.061 2.061 0 0 1-.83-.88 2.966 2.966 0 0 1-.3-1.32v-.418c0-.808.198-1.44.602-1.897.397-.457.96-.682 1.676-.682a2.267 2.267 0 0 1 1.471.44c.364.297.58.715.654 1.27h-.943c-.108-.643-.495-.962-1.16-.962a1.15 1.15 0 0 0-.988.451c-.227.297-.341.737-.347 1.32v.412c0 .578.125 1.029.381 1.348.248.317.64.496 1.051.478.494 0 .841-.11 1.051-.324v-1.045h-1.142v-.71h2.102v2.052zm-5.392.704h-.965l-2.466-3.806v3.806h-.966v-5.362h.966l2.477 3.817v-3.817h.954v5.362zm-5.58 0h-.965v-5.362h.966v5.362zm-1.738-4.609h-1.733v4.609h-.954v-4.609h-1.722v-.753h4.41v.753zm-7.523 2.607h1.608l-.8-2.222-.807 2.222zm1.876.754h-2.143l-.454 1.248h-1l2.096-5.362h.864l2.102 5.362h-1.011l-.455-1.248zm-7.006-1.568h.988c.33 0 .58-.077.767-.236.182-.16.273-.374.273-.65 0-.285-.085-.511-.255-.665-.17-.16-.42-.236-.756-.242h-1.017v1.793zm1.08.748h-1.08v2.068h-.966v-5.362h1.954a2.327 2.327 0 0 1 1.478.418c.352.274.522.676.522 1.204 0 .357-.085.66-.267.896-.19.252-.45.447-.75.561l1.25 2.233v.05H43.87l-1.108-2.068zm-7.307-.247l-.631.643v1.672h-.966v-5.362h.966v2.513l.534-.632 1.62-1.881h1.164l-2.057 2.376 2.176 2.986h-1.136l-1.67-2.316zm-3.523-.506c0-.594-.114-1.045-.341-1.364a1.149 1.149 0 0 0-.989-.479 1.149 1.149 0 0 0-.977.473c-.26.399-.388.865-.364 1.336v.308c0 .589.12 1.045.358 1.364.239.325.569.485.989.485.39.016.76-.163.983-.474.227-.313.34-.77.34-1.375v-.275zm.966.275c0 .528-.097.99-.284 1.38-.348.77-1.144 1.257-2.012 1.232a2.166 2.166 0 0 1-2.017-1.226 3.092 3.092 0 0 1-.284-1.353v-.303c0-.522.091-.985.284-1.38a2.11 2.11 0 0 1 .813-.919c.36-.215.776-.326 1.199-.319a2.137 2.137 0 0 1 2.011 1.221c.187.39.284.847.284 1.375l.006.292zm-6.347-.275c0-.594-.113-1.045-.346-1.364a1.149 1.149 0 0 0-.99-.479 1.149 1.149 0 0 0-.976.473c-.261.399-.388.865-.364 1.336v.308c0 .589.12 1.045.358 1.364.239.325.568.485.989.485.39.016.76-.163.983-.474.227-.313.34-.77.34-1.375l.006-.275zm.966.275c0 .528-.097.99-.284 1.38-.348.77-1.144 1.257-2.011 1.232a2.166 2.166 0 0 1-2.017-1.226 3.087 3.087 0 0 1-.29-1.353v-.303c0-.522.096-.985.284-1.38a2.11 2.11 0 0 1 .812-.919c.362-.216.78-.327 1.205-.319a2.137 2.137 0 0 1 2.011 1.221c.188.39.284.847.284 1.375l.006.292zm-8.386-.561h.949c.3 0 .534-.066.704-.198.17-.127.256-.314.256-.55 0-.27-.08-.463-.239-.578-.153-.121-.398-.176-.727-.176h-.943v1.502zm0 .682v1.683h1.068c.307 0 .54-.077.71-.22.17-.143.256-.347.256-.605 0-.556-.296-.842-.88-.858H19.13zm-.966 2.42v-5.357h1.903c.625 0 1.102.12 1.432.368.33.242.494.605.494 1.084 0 .247-.074.467-.21.66-.136.198-.34.352-.602.456.582.13.98.65.943 1.227 0 .506-.17.89-.5 1.16-.335.275-.813.407-1.438.407l-2.022-.005zM17 14.042h-2.278v1.65h2.659v.742h-3.625v-5.362h3.602v.753h-2.636v1.48h2.272l.006.737zm-4.102.643a1.907 1.907 0 0 1-.66 1.337c-.38.319-.886.478-1.516.478a2.064 2.064 0 0 1-1.95-1.166 3.018 3.018 0 0 1-.283-1.298v-.495c0-.511.09-.951.284-1.336A2.098 2.098 0 0 1 10.767 11c.614 0 1.102.165 1.477.484.375.319.591.77.654 1.359h-.966c-.04-.385-.16-.66-.341-.836-.188-.165-.46-.253-.824-.253-.42 0-.739.148-.966.44-.227.297-.34.731-.34 1.303v.473c0 .578.101 1.018.317 1.32.216.308.529.462.944.462.38 0 .664-.082.852-.247.193-.165.312-.44.364-.825l.96.005zm-8.12-.253h1.608l-.8-2.222-.808 2.222zm1.875.754H4.511l-.454 1.248h-1l2.096-5.362h.864l2.102 5.362H7.114l-.46-1.248zm-3.46-1.023H.966v2.271H0v-5.362h3.523v.753H.966v1.595h2.227v.743z" fill="#121212"/><path d="M84.244 13.172c.027-.38-.052-.759-.227-1.1-.153-.236-.398-.357-.722-.357-.323 0-.556.11-.71.33-.148.226-.227.572-.238 1.045v1.21c-.027.385.051.77.227 1.117.159.247.398.368.727.368.318 0 .551-.11.705-.341.147-.22.227-.578.238-1.062v-1.21zm.983 1.001c0 .77-.159 1.348-.477 1.739-.318.39-.795.588-1.449.588-.636 0-1.114-.192-1.437-.572-.324-.385-.489-.946-.495-1.694v-.924c0-.77.154-1.347.472-1.732.318-.385.801-.578 1.454-.578.648 0 1.125.187 1.444.561.318.374.483.935.488 1.683v.93zm-5.483 1.315c.182 0 .324.044.426.138a.481.481 0 0 1 .148.357.466.466 0 0 1-.148.347c-.102.093-.244.137-.426.137-.176 0-.318-.044-.42-.137a.444.444 0 0 1-.154-.347c0-.143.052-.264.154-.357.096-.094.238-.138.42-.138zm-5.13-1.716l.318-2.695h3.17v.77H75.75l-.16 1.276c.285-.143.601-.215.921-.209.569 0 1 .165 1.313.484.312.33.466.77.466 1.32 0 .545-.17.973-.512 1.298-.352.324-.823.484-1.426.484-.54 0-.988-.138-1.34-.418a1.46 1.46 0 0 1-.58-1.1h.954c.034.259.137.457.307.6.17.137.387.203.654.203.3 0 .54-.099.71-.291.17-.198.25-.462.25-.803 0-.33-.091-.584-.279-.77a1.03 1.03 0 0 0-.767-.286c-.181 0-.33.022-.454.06a1.323 1.323 0 0 0-.41.253l-.783-.176z" fill="#EA5316"/><path d="M75.568 1.793h-.824l-.994 3.223-.784-3.223h-1.063l1.324 4.719h.898l1.023-3.245 1.04 3.245h.897l1.324-4.719h-1.062l-.773 3.256-1.006-3.256zm-5.466 1.034c.17.182.273.451.296.808v.078h-2.085c.056-.364.17-.65.352-.853a.944.944 0 0 1 .727-.302c.307 0 .54.088.71.275v-.006zm.512 3.542c.315-.149.584-.377.778-.66l-.59-.544a1.494 1.494 0 0 1-1.217.588c-.358 0-.653-.11-.886-.341a1.396 1.396 0 0 1-.398-.924h3.165v-.429c0-.748-.176-1.331-.54-1.738a1.929 1.929 0 0 0-1.534-.616 2.08 2.08 0 0 0-1.915 1.177 2.757 2.757 0 0 0-.284 1.265v.127c0 .704.222 1.264.648 1.694a2.291 2.291 0 0 0 1.682.632c.397 0 .767-.077 1.09-.231zM65.199.968c.108.105.261.16.454.16.2 0 .353-.055.455-.165a.541.541 0 0 0 .17-.396.538.538 0 0 0-.17-.407c-.102-.11-.256-.16-.455-.16-.193 0-.346.055-.454.165a.551.551 0 0 0-.16.401.56.56 0 0 0 .16.402zm1 .825h-1.091v4.719h1.09V1.793zm-5.034 0h-1.13l1.698 4.719h.943l1.682-4.719h-1.125L62.21 5.17l-1.045-3.377zM58.34 2.827c.17.182.267.451.29.808v.078h-2.074c.051-.364.17-.65.352-.853.182-.204.426-.302.722-.302.3 0 .54.088.71.275v-.006zm.517 3.542c.316-.149.584-.377.778-.66l-.585-.544c-.283.377-.74.597-1.221.588-.358 0-.654-.11-.887-.341a1.397 1.397 0 0 1-.403-.924h3.176v-.429c0-.748-.182-1.331-.54-1.738a1.935 1.935 0 0 0-1.534-.616 2.086 2.086 0 0 0-1.92 1.177 2.757 2.757 0 0 0-.285 1.265v.127c0 .704.216 1.264.648 1.694a2.297 2.297 0 0 0 1.682.632c.398 0 .767-.077 1.091-.231zM51.131 1.05h1.199c.397.006.693.105.892.286.198.188.3.452.3.792 0 .33-.113.583-.323.77-.216.188-.511.281-.898.281h-1.165l-.005-2.128zm2.58 5.462h1.215v-.055L53.46 3.806c.352-.135.657-.364.88-.66.211-.286.313-.638.313-1.067 0-.622-.204-1.1-.613-1.425-.41-.33-.989-.495-1.745-.495H50v6.353h1.136V4.065h1.262l1.312 2.447z" fill="#121212"/><path d="M42.5 2.756L40.91 4.23l.38 2.079a.532.532 0 0 1 0 .082c0 .11-.046.209-.17.209a.366.366 0 0 1-.182-.055l-1.96-.979-1.961.985a.402.402 0 0 1-.17.049c-.131 0-.188-.099-.188-.209l.006-.082.38-2.08-1.59-1.474c-.057-.054-.114-.12-.114-.197 0-.127.136-.176.25-.193l2.193-.303.983-1.891c.034-.078.114-.171.21-.171.103 0 .176.093.216.17l.983 1.892 2.193.303c.103.016.245.066.245.192 0 .078-.057.143-.114.199zm-8.835 0L32.074 4.23l.38 2.079a.532.532 0 0 1 0 .082c0 .11-.05.209-.17.209a.366.366 0 0 1-.182-.055l-1.96-.979-1.96.985a.402.402 0 0 1-.17.049c-.131 0-.188-.099-.188-.209l.006-.082.375-2.08-1.591-1.474c-.052-.054-.108-.12-.108-.197 0-.127.136-.176.244-.193l2.193-.303.983-1.891c.04-.078.114-.171.216-.171s.17.093.216.17l.983 1.892 2.193.303c.102.016.244.066.244.192 0 .078-.056.143-.113.199zm-8.835 0L23.239 4.23l.38 2.079a.532.532 0 0 1 0 .082c0 .11-.05.209-.176.209a.366.366 0 0 1-.17-.055l-1.966-.979-1.96.985a.404.404 0 0 1-.177.049c-.125 0-.181-.099-.181-.209l.005-.082.375-2.08-1.59-1.474c-.052-.054-.109-.12-.109-.197 0-.127.137-.176.245-.193l2.193-.303.983-1.891c.04-.078.114-.171.216-.171s.17.093.216.17l.983 1.892 2.193.303c.102.016.244.066.244.192 0 .078-.057.143-.113.199zm-8.836 0l-1.59 1.474.38 2.079a.532.532 0 0 1 0 .082c0 .11-.051.209-.176.209a.366.366 0 0 1-.17-.055l-1.966-.979-1.96.985a.404.404 0 0 1-.177.049c-.125 0-.182-.099-.182-.209l.006-.082.375-2.08-1.59-1.474c-.052-.054-.109-.12-.109-.197 0-.127.137-.176.245-.193l2.193-.303.983-1.891c.04-.078.113-.171.216-.171.102 0 .17.093.216.17l.982 1.892 2.194.303c.102.016.244.066.244.192 0 .078-.057.143-.114.199zm-8.835 0L5.57 4.23l.38 2.079a.532.532 0 0 1 0 .082c0 .11-.051.209-.176.209a.366.366 0 0 1-.176-.055l-1.96-.979-1.96.985A.404.404 0 0 1 1.5 6.6c-.13 0-.188-.099-.188-.209l.012-.082.375-2.08L.108 2.755C.057 2.702 0 2.635 0 2.558c0-.127.136-.176.244-.193l2.194-.303L3.42.171C3.46.093 3.534 0 3.636 0c.097 0 .17.093.21.17l.984 1.892 2.193.303c.108.016.25.066.25.192 0 .078-.057.143-.114.199z" fill="url(#a)"/></g></g></svg>