<svg width="72" height="83" xmlns="http://www.w3.org/2000/svg"><g transform="translate(1 1)" fill="none"><path stroke="#B6852B" stroke-width="2" fill="#081E3F" d="M0 13H70V80.836H0z"/><g transform="translate(14)"><path d="M.112.058V5.44l1.359-.001v9.144l-1.359.004v5.3h8.526v-5.296h-1.26V12.84l4.36.009V7.696l-4.36-.009V5.43h2.46v1.242h5.89V.058H.112zm16.504 0v5.371h1.338v9.185h-1.338v5.27h8.525v-5.27h-1.297V5.43h1.307V.058h-8.535zm9.396 0V5.43h1.293v10.636l3.605 3.823h7.075l3.581-3.823V5.43h1.32V.058h-8.123V5.43l.914-.001v9.166h-2.46V5.43h.817V.058h-8.022z" stroke="#B6862C" stroke-width=".572" fill="#B6862C"/><path d="M.746.697v4.091h1.366V15.24H.747v4.006h7.266v-4.006h-1.28v-3.065h4.354V8.342H6.733V4.788h3.802v1.237h4.536V.697H.746zm16.504 0v4.091h1.337v10.255l-.001.176h-1.307v.93c-.634.379-1.277.917-1.693 1.169-.635.389-1.62 1.039-1.985 1.34-.344.285-.808.694-1.221 1.125a1.941 1.941 0 0 1-.182.194c-.366.342-.729.745-1.068 1.152a1.326 1.326 0 0 1-.112-.078c-.096-.073-.254-.216-.53-.228a.788.788 0 0 0-.633.357c-.087.134-.231.33-.328.612a1.78 1.78 0 0 0-.074.595v.077c.002.252.043.526.11.778-.118.177-.183.281-.183.281-2.025 2.97-2.698 9.07-2.701 13.18 0 .446.007.867.023 1.258.042 1.097.122 2.107.838 3.58 1.834 3.776 3.21 5.946 4.233 7.54-.395.43-.589.884-.653 1.118a.223.223 0 0 1-.024.062c-.006.002-.03.002-.07.002-.13.003-1.167.132-1.894 1.159a2.3 2.3 0 0 0-.444 1.345c.001.717.338 1.283.545 1.528.171.775.61 1.36.732 1.508.066.08.126.138.227.143a.18.18 0 0 0 .152-.095.395.395 0 0 0 .044-.154c.005-.063.065-.346.153-.655.753.474 2.32.645 2.964.657a.757.757 0 0 0 .062.002c1.63.001 2.289-.724 3.017-1.065.601-.285 1.038-.576 2.012-.578.377 0 .834.047 1.409.156.22.042.43.06.628.06 1.057 0 1.802-.52 2.11-.747.134-.1.302-.224.48-.372.015.065.029.137.044.233.01.064.029.123.06.175.03.051.084.106.17.11.128-.01.19-.105.249-.234.032-.075.263-.555.377-1.158a2.302 2.302 0 0 0 .531-1.5c0-.504-.15-1.013-.453-1.425-.416-.559-1.136-.944-1.947-.98l-.046-.002-.095.002c-.105-.007-.153.003-.299-.182a4.067 4.067 0 0 0-2.64-1.579c-.497-1.089-1.372-2.48-2.077-3.523.09-.415.21-.936.321-1.435.073.047.148.091.226.129.226.096.473.162.731.21l.321.05c.384.05.766.064 1.078.064h.177c.164 0 .337-.007.515-.022l.028-.004c.195-.02.399-.053.606-.106a3.152 3.152 0 0 0 1-.446c.157-.105.308-.231.446-.384.507-.555.647-1.212.7-1.694.05-.461.079-.859.116-1.03.048-.225.177-.715.29-1.207.055-.242.109-.476.151-.667.045-.178.082-.332.085-.351l.028-.108c.18-.074.319-.166.461-.262l.066-.045c.693-.48 1.148-1.294 1.918-1.668.316-.154.66-.118 1.009-.036.35.082.73.278 1.106.272.532-.008.735-.154 1.217.049.477.199 1 .28 1.47.493.62.281 1.188.7 1.894.713H33.226c-.02.04-.041.078-.063.115a.415.415 0 0 0-.068.211c0 .046.01.127.07.2.07.08.156.103.225.105a.455.455 0 0 0 .158-.029c.306-.129.565-.332.767-.59.161-.044.3-.118.416-.202.187-.14.314-.303.396-.445.192-.34.304-.743.315-1.146.002-.017.002-.036.002-.05 0-.152-.014-.306-.054-.462l-.016-.06c-.005-.014-.01-.028-.013-.043l-.037-.103a2.707 2.707 0 0 0-1.214-1.392 3.99 3.99 0 0 0-.862-1.256c-.379-.374-.749-.636-1.078-.758a.097.097 0 0 0-.02-.007c.386-.712 1.388-2.7 1.79-5.064.19-1.125.326-1.915.387-2.546.016-.175.027-.336.03-.492.002-.046.002-.093.002-.139 0-.206-.015-.4-.047-.588a2.243 2.243 0 0 0-.452-1 2.76 2.76 0 0 0-.71-.621h4.523l3.259-3.446.001-11.01.005-.001h1.304V.696h-6.827v4.092h.898v10.051h.002l-.374.4-2.994-.002-.375-.392L32.57 4.79v-.001h.769V.696H26.64v4.092h1.308v11.01l2.426 2.569a11.897 11.897 0 0 0-1.908-.124c-.434 0-.855.016-1.173.048-.237.026-.446.08-.836.16-.245-.28-.632-.568-.934-.876a6.082 6.082 0 0 0-1.005-.794V15.22h-1.31V4.788h1.31V.696H17.25z" fill="#081E3F"/><path d="M20.2 16.685c-1.163-.005-2.122.52-2.626.773-.621.314-2.003 1.036-2.623 1.421-.589.367-2.225 1.478-2.393 1.592-.284.294-.608.695-.928 1.126.128.065.276.108.474.11.093 0 .196-.01.309-.03.262-.046.395-.058.655-.125.254-.063 1.201-.415 2.409-.969.214-.12.469-.24.773-.354.168-.055.345-.112.53-.174.142-.04.841-.236.845-.236a8.775 8.775 0 0 1 2.021-.235c1.603 0 2.9.437 3.71.806l.005.003c.375.172.645.328.79.418.566.275 1.362.61 2.124.763.08.014.161.03.25.045.115.02.22.03.314.03.602-.004.872-.328 1.179-.582.095-.076.22-.185.43-.192h.005c.219 0 .375.147.463.286.093.148.17.328.256.583.072.21.102.419.102.628-.007.733-.37 1.4-.777 1.942-.01.034-.02.07-.034.106-.014.046-.03.09-.048.135a1.505 1.505 0 0 1-.278.455c-.1.12-.217.235-.346.344-.099.1-.213.203-.352.312-.139.11-.246.19-.329.254.017.046.032.09.05.135l.059.177.04.129c.043.144.082.284.128.452l.02.074c.03.111.066.235.107.379.046.166.085.35.119.54.283.852.397 1.602.414 2.249l.462-.281a2.439 2.439 0 0 1 .51-.165l.012-.003c.043-.007.084-.016.126-.019l.029-.004c.117-.013.27-.029.38-.035h.014a.505.505 0 0 1 .049-.004h.005l.04.002c.174.017.33.05.473.101.057.02.115.046.168.074l-.04-.02c.082-.11.203-.205.284-.323a6.489 6.489 0 0 0 .253-.4c.002-.001.003-.003.003-.005.051-.085.1-.175.15-.262.092-.166.18-.338.266-.514l.112-.242c.192-.422.364-.866.52-1.32.13-.384.25-.775.36-1.17.064-.229.123-.462.181-.692a30.696 30.696 0 0 0 .51-2.582c.021-.13.042-.258.06-.382a2.937 2.937 0 0 0 .019-.276v-.007c0-.029 0-.058-.002-.086v-.001a1.763 1.763 0 0 0-.074-.478c-.014-.04-.026-.08-.043-.115a1.3 1.3 0 0 0-.144-.273c-.007-.007-.01-.015-.015-.022l-.009-.01a.188.188 0 0 0-.022-.03c-.108-.139-.203-.2-.203-.2a3.768 3.768 0 0 0-.72-.382l-.115-.045a6.446 6.446 0 0 0-.323-.113l-.134-.041a7.827 7.827 0 0 0-.489-.127c-.219-.05-.445-.093-.674-.13-.996-.161-2.06-.211-2.943-.215h-.26l-.248.005h-.008c-.29.006-.55.014-.767.023-.382.017-.633.037-.688.04h-.005a.925.925 0 0 0-.029.006l-.047.007-.18.029c-.693.113-1.054.151-1.243.161-.92.101-.655-.007-.655-.007.228-.07.637-.19 1.097-.322l.699-.199c-.002-.001-2.192-1.857-3.716-2.217a3.696 3.696 0 0 0-.833-.099zm-10.188 7.3l-.122.192a7.776 7.776 0 0 0-.446.812c-1.17 2.46-1.656 6.271-1.883 8.454-.143 1.38-.046 3.846.138 5.411.092.796.204 1.379.333 1.728.363.978 1.252 2.966 1.483 3.333.279.442 2.156 3.945 2.273 4.107.124.174.162.126.16 0-.004-.126-.028-.785.028-1.24.018-.148.079-.426.203-.582.086-.104.216-.11.156.101-.11.383.103 1.4.403 2.16.01.024.027.024.05.016.085-.038.173-.076.266-.106 1.096-.372 1.803-.232 2.291-.096.054.013.083-.014.107-.045.283-.353.937-.97 1.842-1.311l-.029.01s-.43-1.685-.657-2.397c-.227-.71-.717-1.637-.908-2.046-.191-.41-.204-1.05-.144-1.22.06-.17.52.287.52.287s.015-.132.079-.26c.06-.12.274-.957.274-.957.015.055.068.145.135.245a4.964 4.964 0 0 1-.302-.607c-.299-.708-.463-1.473-.59-2.033-.092-.41-.468-1.11-.52-1.21l-.006-.012-.01-.01c-.008-.013-.022-.031-.039-.052l-.135-.163c-.062-.074-.13-.156-.191-.226-.02-.02-.04-.045-.063-.069-.053-.051-.208-.204-.257-.248a4.038 4.038 0 0 0-.136-.122c-.032-.029-.05-.043-.05-.045-.019-.013-.037-.03-.053-.043l-.219-.19-.492-.427c-.054-.044-.106-.09-.159-.135l-.044-.03c-.181-.12-.435-.306-.787-.579-1.81-1.402-2.086-3-2.085-3.83 0-.116.006-.217.012-.301 0-.041-.004-.084-.004-.127l.001-.043c.003-.026.003-.051.004-.078V29.964l.002-.001.01-.101c.006-.091.018-.188.03-.292.001-.005.003-.01.003-.016v-.011c.005-.033.011-.074.015-.112.006-.04.01-.08.018-.125 0-.012.002-.02.004-.03.017-.136.046-.285.08-.44.011-.04.02-.085.032-.128l.015-.064c.074-.293.164-.6.252-.888.008-.025.018-.053.025-.079l.005-.017c.033-.106.066-.205.098-.3l.049-.15.013-.038.019-.058.098-.287.014-.04c.006-.021.014-.039.018-.05v-.006l.005-.01.007-.016v-.003l.001-.004.003-.001v-.004l.003-.008.001-.002c.01-.024.024-.065.042-.113l.076-.228.001-.002.124-.308c-1.216-.888-1.37-1.75-1.386-1.891a4.93 4.93 0 0 1-.104-.156z" stroke="#B6862C" stroke-width=".572" fill="#B6862C"/><path d="M29.444 30.067c-.245.012-.49.09-.703.182-.078.033-.154.07-.23.11l-.396.185s-.126.814-.25 1.23c0 0 .105.234.34.325.193.073.19-.266.33-.43v.01a.849.849 0 0 1 .103-.086.497.497 0 0 1 .376-.074c.092.017.17.055.228.088l.02.013.026.018a.511.511 0 0 1 .134.173.689.689 0 0 1 .064.183.835.835 0 0 1-.105.597c.058.007.142.008.237-.004a.922.922 0 0 0 .162-.03l.06-.02a.872.872 0 0 0 .391-.262.61.61 0 0 1 .022-.055c0-.003.004-.007.004-.008.013-.023.027-.026.044-.016.029.018.06.078.068.107a.985.985 0 0 0 .161.31c.03.04.063.077.1.115.107.11.233.21.365.29l.002.001c.003 0 .003 0 .003.002.043.026.087.048.13.07l.013.007c.005.004.01.005.013.007.043.02.085.041.128.058-.012-.058-.028-.111-.04-.159a4.767 4.767 0 0 0-.033-.122.82.82 0 0 1-.015-.063c-.102-.324.018-.609.247-.742a.595.595 0 0 1 .107-.047c.026-.008.051-.017.078-.022a.63.63 0 0 1 .377.06c.214.108.402.353.387.785-.007.146-.032.28-.064.41-.012.044-.02.092-.036.133-.029.091-.063.175-.102.258.048.01.2.037.374.036l.074-.004a2.813 2.813 0 0 0 .255-.048h.003a.086.086 0 0 1 .02-.003.52.52 0 0 0 .166-.09s.004 0 .008.007c.008.01.018.033.018.062.002.016 0 .031-.006.052a.21.21 0 0 0-.009.065c-.003.01-.006.019-.006.03a.849.849 0 0 0 .111.39.804.804 0 0 0 .231.283c.04.025.078.05.119.065a.41.41 0 0 1 0-.144c0-.014.004-.026.007-.04a.63.63 0 0 1 .38-.41.446.446 0 0 1 .161-.025c.03 0 .06.007.087.019a.226.226 0 0 1 .054.025.536.536 0 0 1 .22.306.65.65 0 0 1 .03.145l.005-.007h.002l.003-.001c0-.002.002-.002.003-.004a.436.436 0 0 0 .094-.096.669.669 0 0 0 .1-.19l.01-.038a.895.895 0 0 0 .037-.183.83.83 0 0 1-.003-.067.943.943 0 0 1-.007-.072 1.01 1.01 0 0 0-.025-.103c-.136-.51-.48-.84-1.007-1.208-.005.032-.022.077-.039.123-.012.026-.022.051-.035.077a.854.854 0 0 1-.131.2c-.016.018-.033.03-.046.04-.019.012-.034.02-.046.017l-.003-.001-.005-.002a.065.065 0 0 1-.014-.043c0-.007 0-.016.002-.022 0-.012.003-.026.007-.042l.005-.027a.818.818 0 0 0 .027-.255c-.009-.309-.141-.696-.389-1.048a1.635 1.635 0 0 0-.166-.21 1.47 1.47 0 0 0-.158-.163 2.205 2.205 0 0 0-.956-.53.897.897 0 0 0-.205-.026c-.022 0-.048 0-.071.002l-.026.002c-.022.001-.046.005-.07.007h-.004l-.06.01-.03.005a.659.659 0 0 0-.075.017c-.026.007-.051.012-.075.017-.018.005-.036.012-.053.018a.597.597 0 0 1-.052.013 2.674 2.674 0 0 0-.336.144.644.644 0 0 0-.166.12c-.026.02-.02-.01-.038-.056a1.571 1.571 0 0 0-.076-.162c-.167-.308-.386-.466-.627-.53a1.071 1.071 0 0 0-.224-.034 1.416 1.416 0 0 0-.12 0zm-6.016 1.295c-.049 0-.091.001-.134.003-.358.012-.499.09-.572.403-.07.305-.239.619-.48.84a.915.915 0 0 1-.109.089.973.973 0 0 1-.132.086l-.083.044c-.02.01-.043.024-.06.035l-.096.053c-.041.026-.084.05-.12.074-.072.046-.139.092-.2.145-.07.057-.139.123-.215.207-.246.266-.41.345-.62.476a.55.55 0 0 0-.195.23 1.34 1.34 0 0 0-.112.494c-.015.299.374.383 1.066.515l.127.026.123.019c.139.024.276.042.412.056.448.053.856.056 1.115-.016.359-.099.693-.176.94-.474.02-.023.035-.043.05-.064a1.819 1.819 0 0 0 .232-.457c.116-.304.185-.61.2-.672l.002-.007v-.014c-.001-.005-.006-.009-.01-.012a.05.05 0 0 0-.042-.015h-.038a2.117 2.117 0 0 0-.154-.01h-.04a3.881 3.881 0 0 0-.352.039l-.058.008c-.06.009-.117.02-.164.03-.095.02-.221.05-.327.054-.018.002-.033 0-.05-.001-.08-.002-.14-.024-.145-.088l-.001-.029c0-.075.033-.14.125-.192a.945.945 0 0 1 .324-.096c.184-.03.382-.034.554-.03a3.501 3.501 0 0 1 .387.024c.097.01.109.004.109 0v-.003l.017-.048c.035-.115.052-.214.062-.296.014-.108.01-.187.009-.235l-.002-.028c.003-.042-.022-.056-.039-.06-.007-.003-.014-.003-.014-.003s-.102-.003-.265 0a1.73 1.73 0 0 0-.18.016 9.515 9.515 0 0 0-.546.08c-.007.002-.012 0-.017.002-.156.026-.251-.019-.273-.1a.027.027 0 0 1-.004-.013c-.015-.091.077-.177.077-.177a.471.471 0 0 1 .12-.063 1.12 1.12 0 0 1 .121-.034l.09-.02.078-.01.04-.003.058-.004.06-.005.102-.003h.088c.195 0 .358.012.4.013a.066.066 0 0 0 .04-.01c.003 0 .005-.003.008-.003l.002-.004c.022-.024.013-.066.008-.087l-.002-.005v-.003c-.003-.021-.008-.042-.012-.062a.504.504 0 0 0-.217-.369c-.095-.072-.326-.132-.524-.173a7.24 7.24 0 0 0-.295-.057l-.031-.003-.216-.003zm-7.671.277c-.142.002-.28.021-.418.06a1.348 1.348 0 0 0-.292.122 1.022 1.022 0 0 0-.196.139l-.02.019a.884.884 0 0 0-.138.168c-.005.007-.008.013-.01.019l-.001.003c-.003.007-.005.01-.005.015 0 .026.037.021.037.021s.087-.008.31-.005l.223.008c.01.002.023.002.033.002a3.338 3.338 0 0 1 .506.074c.121.027.197.053.197.053s.2.062.23.19a.157.157 0 0 1 0 .059c-.03.166-.27.103-.27.103s-.058-.018-.146-.04c-.051-.01-.11-.027-.176-.043a10.235 10.235 0 0 0-.207-.051 3.094 3.094 0 0 0-.604-.06H14.667c-.023 0-.038.005-.051.008-.011.002-.019.007-.025.01-.018.016-.016.033-.016.033s0 .112.01.23l.005.051c.015.137.065.24.1.33a.113.113 0 0 0 .027.042c.003.006.007.012.011.014a.049.049 0 0 0 .01.005c0 .002.002.002.003.004l.004.001h.006c0 .002.001.002.003.002h.013l.008-.002c.004 0 .012 0 .026-.003l.125-.014c.021-.001.044-.007.07-.008.037-.004.079-.01.126-.014.053-.005.11-.009.171-.009h.157c.37.016.747.094.747.094s.131.026.24.086c.071.041.134.095.14.168a.136.136 0 0 1 0 .038.187.187 0 0 1-.023.069v.001a.112.112 0 0 1-.047.042.18.18 0 0 1-.056.013.898.898 0 0 1-.268-.044l-.137-.038-.15-.04c-.043-.013-.089-.022-.135-.032l-.031-.005a1.43 1.43 0 0 0-.145-.024 3.776 3.776 0 0 0-.5-.03c-.096.003-.163.006-.182.004-.01 0-.015.005-.021.005l-.005-.005s-.099-.01-.076.106c.023.115.186.881.539 1.3.1.12.179.194.242.236.073.064.15.124.238.175.347.204.814.292 1.418.228.054-.007.112-.013.168-.022.1-.015.204-.034.307-.056.102-.024.206-.049.31-.078.052-.014.103-.027.156-.043.015-.005.032-.012.05-.017.017-.005.036-.01.053-.017a11.182 11.182 0 0 0 .56-.192c.251-.096.469-.19.62-.26l.059-.03c.053-.025.093-.047.12-.065a.258.258 0 0 0 .075-.053c.15-.147.167-.406.175-.57a.265.265 0 0 0-.012-.11c-.034-.085-.122-.1-.222-.144-.133-.06-.255-.175-.476-.37l-.07-.062a1.591 1.591 0 0 0-.13-.109c-.085-.058-.203-.114-.533-.263a4.585 4.585 0 0 1-.2-.096 2.554 2.554 0 0 1-.426-.266 1.077 1.077 0 0 1-.273-.298c-.038-.062-.065-.107-.092-.146a.622.622 0 0 0-.085-.111.916.916 0 0 0-.09-.085 1.133 1.133 0 0 0-.256-.135c-.017-.009-.032-.014-.05-.022-.004 0-.008-.002-.013-.004-.012-.007-.024-.01-.036-.014-.017-.006-.035-.015-.05-.022l-.027-.008-.054-.02a.12.12 0 0 0-.02-.006c-.006-.002-.014-.007-.02-.007l-.018-.007-.01-.003a5.951 5.951 0 0 0-.271-.076c-.05-.012-.098-.024-.146-.034-.042-.008-.083-.017-.125-.024a2.18 2.18 0 0 0-.43-.038zm6.889 4.1c-.022.002-.03.028-.034.107-.002.012-.002.024-.003.038-.002.017-.002.032-.002.053l-.004.072c-.018.367-.235.816-.434 1.135l-.04.062-.04.061a.96.96 0 0 0-.122.264c-.01.036-.02.072-.027.11l-.02.098c-.04.235-.048.487-.089.718-.005.031-.01.063-.013.096-.026.147-.046.293-.07.432a2.63 2.63 0 0 1-.042.207 1.57 1.57 0 0 1-.236.566.908.908 0 0 1-.404.309 1.373 1.373 0 0 1-.167.06c-.052.015-.105.03-.16.042-.169.04-.34.059-.486.076a4.64 4.64 0 0 1-.375.017h-.004a6.726 6.726 0 0 1-1.195-.1 3.924 3.924 0 0 1-.53-.133 1.103 1.103 0 0 1-.129-.058c-.02-.009-.037-.02-.056-.031a1.448 1.448 0 0 1-.453-.422 2.729 2.729 0 0 1-.132-.21c-.003-.008-.01-.014-.014-.023-.001.036-.005.076-.006.118l-.006.114-.001.109c.003.252.04.542.195.804h.002a2.217 2.217 0 0 0 .256.291c.047.043.095.083.144.119.012.008.024.014.036.024.037.024.075.05.114.072.018.01.039.019.057.03.036.018.075.033.11.049l.065.02c.25.09.53.124.868.15.188.013.385.02.578.018.574-.003 1.112-.066 1.333-.142.63-.207.738-.36.933-.632a1.246 1.246 0 0 0 .107-.175c.178-.366.223-.875.318-1.564.003-.017.003-.034.008-.05a10.735 10.735 0 0 1 .146-.847c.05-.233.114-.503.205-.863.084-.32.11-.523.145-.696.01-.057.022-.11.035-.163a.174.174 0 0 0 .01-.07.172.172 0 0 0-.08-.141c-.013-.01-.028-.019-.042-.027-.01-.006-.02-.01-.03-.014l-.003-.002a.062.062 0 0 0-.02-.007c-.032-.014-.06-.022-.083-.03-.037-.015-.066-.028-.086-.035-.007-.002-.014-.004-.019-.004l-.008-.001zm-3.787 11.44c-1.16.002-2.332.679-2.951 1.689-.061.097-.165.133-.293.07-1.921-.97-3.638.007-3.864 1.605-.02.137-.127.257-.283.255-.937-.005-1.758.49-2.127 1.26-.179.372-.24.9-.054 1.395.049-.45.234-.925.649-1.381a.512.512 0 0 1 .094-.069c.816-.46 1.623.336 1.452 1.154-.055.264-.35.55-.633.881-.098.115-.194.326-.279.563.614.183 1.582.073 2.002-1.074.073-.199.2-.154.262-.142 2.177.398 3.642-1.294 3.568-2.362-.01-.151.11-.211.19-.094 1.282 1.892 3.469 1.07 3.762.74.095-.106.158-.194.251-.014.47.9 1.338 1.308 2.44.835-.13-.15-.289-.252-.396-.32-.528-.352-.62-.484-.757-.856-.187-.507.092-.93.285-1.138.258-.276.778-.473 1.255-.07.43.361.602.835.64 1.308.409-1.276-.725-2.937-2.355-2.304-.107.04-.13-.002-.188-.122-.627-1.286-1.645-1.81-2.67-1.809zm-.161.66c.923 0 1.232.885 1.152 1.569-.078.684-.887 1.83-1.076 1.995-.056.05-.2.2-.24-.07-.021-.158-.135-.669-.252-.893-.076-.146-.11-.15-.177-.192-.23-.144-.684-.814-.482-1.586.099-.372.545-.825 1.075-.823zm-4.787 1.737c.473.022.94.389 1.053.893.054.24-.04.634-.134.696-.589.38-.888 1.195-.763 1.937.028.158-.014.23-.19.127-.68-.394-1.875-1.886-.582-3.45a.885.885 0 0 1 .616-.203z" fill="#D9B97B"/><path d="M20.363 16.13a5.726 5.726 0 0 0-1.489.18c-1.444.353-2.42 1.196-2.42 1.196s-.38.263-.996.64c-1.468.903-1.686 1.093-2.915 2.333l.015-.009c.167-.113 1.804-1.225 2.392-1.59.62-.386 2.003-1.108 2.624-1.422.62-.312 1.932-1.035 3.46-.674 1.524.36 3.713 2.215 3.715 2.217l.842-.238s-1.477-1.474-2.893-2.063c-.847-.353-1.563-.555-2.335-.57zm7.857 2.835a8.79 8.79 0 0 0-.477.009 4.63 4.63 0 0 0-.407.032h-.002l-.58.076-.147.017-.242.038-.525.078c-.266.042-.507.08-.728.112.054-.004.306-.024.688-.041.217-.009.476-.02.767-.023h.008c.078-.001.161-.001.248-.005h.26c.882.004 1.947.053 2.943.215a10.2 10.2 0 0 1 1.163.257c.045.015.088.027.134.04.112.037.219.075.322.114l.116.045c.268.11.509.236.72.38a.995.995 0 0 0 .225.232l.009.01c.005.007.008.015.015.022.05.074.102.163.144.273.015.036.029.075.043.115.04.135.07.294.074.478v.002c.002.027.002.056.002.085v.007c-.002.055-.003.11-.009.168-.001.034-.005.07-.01.108-.018.124-.039.252-.06.382a30.697 30.697 0 0 1-.51 2.582c-.058.23-.117.463-.182.693-.108.394-.229.785-.36 1.169a14.88 14.88 0 0 1-.519 1.32l-.112.242c-.086.176-.175.348-.266.514-.05.087-.099.176-.15.262 0 .002-.001.004-.003.005l-.014.02a6.49 6.49 0 0 1-.24.38c-.08.118-.201.212-.283.322l.04.02h.003l.002.002.008.005.01.004.002.002.029.018.129.088.073.06v.003l.06.067.008.009.17-.069c.055-.024.12-.05.186-.075a.6.6 0 0 0 .116-.055c.088-.053.152-.113.196-.158l.05-.056a.013.013 0 0 0 .003-.007h.003a.9.9 0 0 0 .072-.1c.18-.283.492-.982.79-1.736v-.002c.079-.197.17-.398.243-.597.123-.332.218-.653.306-.94a4.917 4.917 0 0 0 .107-.368 23.175 23.175 0 0 0 .171-.69c.02-.081.038-.167.058-.254.054-.245.109-.514.16-.8l.028-.162c.009-.055.02-.111.028-.168.054-.33.103-.682.144-1.054v-.01l.046-.326c.08-.53.188-1.097 0-1.606-.13-.348-.25-.58-.82-.897a6.516 6.516 0 0 0-.273-.142c-.055-.028-.11-.053-.17-.083l-.05-.018c-.015-.01-.03-.014-.047-.021a5.947 5.947 0 0 0-.98-.276c-.249-.053-.519-.111-.8-.156l-.4-.046-.162-.02c-.004 0-.007-.003-.007-.003-.586-.075-1.1-.114-1.587-.118zm-2.607 5.3s.013.304.086.522c.073.216.061.266.21.514.036.069.07.142.103.221.003.005.003.009.005.014l.001.003c0 .002 0 .002.002.002.009.019.015.038.024.058l.003.012.005.012v.002c.004.005.006.01.007.016l.015.037v.002c.002.003.002.007.004.009l.005.013v.002l.002.002v.001a.152.152 0 0 0 .008.026l.01.026v.002c.002.001.002.001.002.003l.002.007h.001c.002.007.002.012.006.019h.001a.284.284 0 0 1 .005.019l.014.036.002.001c0 .005.001.01.003.014l.003.014c.005.01.007.022.012.03.002.013.007.023.01.033v.004h.002c0 .005.002.008.004.013l.001.002v.005c.009.024.016.05.024.077l.03.101c.002 0 .002.002.002.002v.002l.005.015.002.004v.003l.015.053c.002.004.004.007.004.012v.002l.008.027v.004h.002c.002.005.002.01.003.017l.012.043h.002l.007.032.001.004a.05.05 0 0 1 .004.015c.003.014.008.028.012.041v.004l.001.008a.119.119 0 0 1 .005.014l.002.007c0 .002.002.002.002.003v.004l.013.055.002.001v.004l.002.005v.007l.001.003c.002 0 .002.004.002.005 0 .004.002.006.004.009v.005l.015.062c0 .003.002.005.003.008v.002c0 .005.002.01.004.016l.001.005v.001l.022.093v.002a.498.498 0 0 0 .01.036.62.62 0 0 0 .014.06v.003c.002.004.004.007.004.01a.019.019 0 0 1 .001.009v.002l.004.01a.28.28 0 0 0 .006.033c.002.008.006.018.007.029v.003c.004.009.005.019.007.028v.001l.002.002v.007a.633.633 0 0 1 .012.055l.001.001v.002c.002.009.005.017.005.026l.002.007.002.003v.007l.012.048.001.005.005.028c.002.005 0 .008.002.012.002.001.002.003.002.005.003.008.003.017.005.025.002.004.002.01.005.016 0 0-.002.002 0 .002 0 .001 0 .003.002.005a.245.245 0 0 0 .007.034l.001.012c0 .002.002.003.002.003 0 .009.002.016.005.023v.005l.002.007v.005c.003.003.003.008.003.015l.009.04c.001.01.005.019.006.029a.85.85 0 0 1 .014.065c.002.009.003.015.003.024.004.009.005.019.007.027l.002.006v.005c.01.04.017.084.027.125l.017.092v.002c.015.072.027.139.04.208.013.054.024.113.035.166l.003.015.007.038a.267.267 0 0 1 .008.053l.007.024c.005.024.009.046.012.07l.003.018.02.108c.004.02.008.04.011.063.003.026.008.051.012.077a.65.65 0 0 1 .012.076l.005.024.012.087.008.067a.134.134 0 0 1 .004.027l.008.057c.003.038.009.074.014.11l.001.012v.005l.01.089c.002.029.007.056.009.087v.009a5.861 5.861 0 0 1 .017.183v.002l.01.17v.012l.002.001v.004c0 .058.003.115.005.173V29.972l-.002.047-.001.043c0 .01 0 .024-.002.036 0 .03-.002.065-.004.096l-.003.019v.005l-.007.089-.003.02v.01l-.007.047-.005.048c0 .002-.002.003-.002.003v.006l-.008.046a.345.345 0 0 1-.009.044c0 .009-.003.02-.005.026-.005.03-.012.058-.018.086 0 .002-.002.003-.002.007v.003l-.014.045a.23.23 0 0 1-.012.044.119.119 0 0 0-.005.014c-.005.015-.012.03-.017.048l-.008.022c0 .002 0 .002-.002.002 0 .002 0 .003-.002.005l-.003.009a.052.052 0 0 0-.007.013c-.003.007-.007.012-.008.018 0 .001-.002.001-.002.003-.013.03-.029.057-.046.086l-.05.079a2.796 2.796 0 0 1-.456.493c-.023.02-.049.041-.074.064-.124.106-.25.199-.357.277-.181.13-.315.213-.322.216l.005.012.002.006.005.017.246.968v.002h.002l.001.003v.002l.002.004c.06-.052.12-.105.178-.16.02-.019.04-.041.065-.062.056-.053.112-.113.17-.174l.001-.004a4.01 4.01 0 0 0 .078-.087c.048-.057.097-.113.146-.177.151-.19.32-.425.526-.734.423-.64.49-.989.493-1.496v-.09c0-.09-.002-.188-.004-.292-.02-.743-.088-1.686-.506-2.89-.025-.078-.052-.15-.076-.222l-.036-.101a.417.417 0 0 1-.013-.043l-.182-.512a6.37 6.37 0 0 0-.742-1.505c0-.002-.129-.213-.156-.282l-.003-.008zm-3.716 7.405c-.013 0-.025-.002-.039 0-.755.043-1.458.224-1.743.697l-.008.009c0 .005-.002.007-.006.01a.052.052 0 0 0-.008.012.054.054 0 0 0-.01.009h-.004c-.001.002-.003.003-.005.003h-.001a.017.017 0 0 0-.005.002.058.058 0 0 1-.034-.012.156.156 0 0 1-.031-.03 1.403 1.403 0 0 0-.192-.186 1.143 1.143 0 0 0-.397-.19 6.952 6.952 0 0 0-.474-.113l-.03-.006c-.061-.012-.119-.02-.178-.03a2.1 2.1 0 0 0-.562-.023c-.022.004-.048.005-.065.009l-.015.005-.061.022a.329.329 0 0 0-.158.136.124.124 0 0 0-.013.106c0 .003.003.007.005.009.001.003.006.008.006.012.017.032.045.07.097.102.133.088.328.158.511.213l.051.015.07.02.073.022a4.067 4.067 0 0 1 .356.104c.009.004.019.004.027.009.03.012.058.022.083.037h.005a.478.478 0 0 1 .109.08c.03.032.056.068.076.11.089.194.145.316.228.419.064.08.134.135.207.173.05.022.098.04.15.048l.02.005a.63.63 0 0 0 .139 0c.085-.01.251-.025.344-.144 0 0 .002-.003.004-.003.003-.005.005-.012.01-.017a.309.309 0 0 0 .029-.053l.013-.052c.004-.014.009-.024.01-.04a.668.668 0 0 1 .016-.087.715.715 0 0 1 .034-.123.48.48 0 0 1 .078-.122c.015-.019.03-.04.05-.056a.5.5 0 0 1 .064-.055c.017-.014.034-.023.05-.035a.627.627 0 0 1 .174-.085c.154-.047.332-.017.604-.041a.72.72 0 0 0 .324-.136.58.58 0 0 0 .25-.574.227.227 0 0 0-.05-.118.127.127 0 0 0-.054-.043c-.01-.007-.024-.01-.039-.016l-.022-.003a.345.345 0 0 0-.063-.005zm-5.468 8.665s-.214.837-.274.957c-.064.129-.078.26-.078.26s-.46-.455-.52-.286c-.06.17-.048.81.143 1.22.191.409.682 1.336.908 2.046.226.711.657 2.397.657 2.397l.03-.01c.096-.032.42-.133.676-.188.083-.017.158-.029.218-.032h.028s-.444-1.157-1-2.261c-.562-1.125-1.255-2.258-1.255-2.258s-.193-.735.037-.454l.028.034.04.057.12.164.277.372.017.022.43-1.304a3.574 3.574 0 0 1-.347-.49c-.067-.1-.12-.19-.135-.246z" fill="#F1E2C8"/><path d="M14.793 27.66c-.103.599.102 1.163.65 1.464.021.012.042.02.064.031.02.01.041.023.062.031.623.268 1.225-.045 1.396-.432a2.173 2.173 0 0 1-.097-.034 1.883 1.883 0 0 1-.096-.034c-.06-.023-.121-.043-.179-.066a.451.451 0 0 1-.068.07.708.708 0 0 1-.332.176c-.009.004-.017.005-.027.006l-.03.005h-.003c-.018.004-.035.004-.053.005-.016.002-.033.004-.051.004-.02 0-.037-.004-.055-.005a.739.739 0 0 1-.633-.468.74.74 0 0 1-.053-.278l.001-.029.001-.027.009-.059v-.006a4.198 4.198 0 0 1-.506-.354zm9.32.01a4.745 4.745 0 0 1-.296.19c-.046.03-.09.057-.14.087a.71.71 0 0 1 .011.058c.01.046.014.094.014.14a.666.666 0 0 1-.024.189.74.74 0 0 1-.356.456c-.002 0-.002.002-.002.002-.004.001-.009.003-.012.006a.117.117 0 0 0-.014.006c-.032.017-.068.025-.103.037-.034.01-.07.02-.106.026-.039.005-.072.012-.111.012a.699.699 0 0 1-.32-.077.713.713 0 0 1-.297-.276c-.056.02-.119.038-.18.057-.06.018-.117.037-.18.054v.002c.057.134.17.263.32.362.249.166.6.254.948.166.068-.017.136-.043.204-.074l.08-.037a1.285 1.285 0 0 0 .45-.42.821.821 0 0 0 .103-.259c.012-.048.024-.098.029-.146a1.602 1.602 0 0 0 .004-.365 2.027 2.027 0 0 0-.023-.195zm4.815 4.067c-.012 0-.027.005-.04.007a.246.246 0 0 0-.108.053c-.003.003-.01.008-.014.014a.687.687 0 0 0-.112.156.555.555 0 0 0-.04.077c-.004.002-.002.005-.004.005-.08.168-.157.411-.171.732v.01l-.002.007v.009a2.97 2.97 0 0 0 .024.415c.007.047.015.099.027.152l.002.01c0 .004.002.005.003.009.002.007.003.014.009.017v.002c.003.005.006.008.011.01l.006.003c.003 0 .005.002.005.002.007 0 .013-.001.017-.005l.007-.008a.087.087 0 0 0 .025-.053c0-.006.005-.021.01-.04a7.204 7.204 0 0 1 .341-1.001c.04-.09.082-.178.126-.259a.28.28 0 0 0 .036-.13v-.016a.303.303 0 0 0-.024-.09c-.002-.004-.003-.007-.007-.01a.182.182 0 0 0-.029-.034l-.007-.01a.178.178 0 0 0-.039-.022l-.005-.002a.147.147 0 0 0-.045-.01h-.002zm2.856.667a.14.14 0 0 0-.047.015.13.13 0 0 0-.058.06.158.158 0 0 0-.02.077.221.221 0 0 0 .003.057h-.001l.028.098a1.81 1.81 0 0 1 .085.761v.007a3.206 3.206 0 0 1-.034.253c-.012.06-.025.125-.042.192v.006c0 .001 0 .003-.002.005a.136.136 0 0 0-.003.024l.001.01c.002.007.005.015.016.015.015-.002.03-.012.052-.037a.04.04 0 0 0 .012-.012c.01-.01.024-.031.041-.055a1.849 1.849 0 0 0 .214-.449 1.53 1.53 0 0 0 .073-.424v-.015a1.19 1.19 0 0 0-.002-.11c0-.003 0-.007-.002-.012a1.292 1.292 0 0 0-.042-.255c-.003-.016-.01-.033-.015-.047a.265.265 0 0 0-.228-.164h-.029zm2.28 1.777a.147.147 0 0 0-.136.096.19.19 0 0 0-.015.072c0 .023.005.047.01.07 0 .008 0 .015.002.023a.894.894 0 0 1 .022.086c.022.089.036.19.032.302a1.336 1.336 0 0 1-.156.565.17.17 0 0 0-.022.07v.002c0 .007.002.01.005.017.003.004.007.007.012.007l.007-.001.018-.006.017-.015.014-.012a1.027 1.027 0 0 0 .122-.158.5.5 0 0 0 .04-.058l.001-.005s.003-.002.003-.004c.097-.16.197-.387.206-.64.001-.037-.002-.071-.005-.109a.907.907 0 0 0-.026-.161c-.024-.09-.088-.137-.15-.14zM19.971 35.2a.244.244 0 0 0-.037.005l-.006.003c-.005 0-.011.004-.022.007-.07.026-.273.103-.507.189l-.104.037c-.091.035-.186.07-.28.102l-.16.058a.747.747 0 0 0-.032.01c-.015.003-.028.01-.042.015-.813.271-1.796.391-1.796.391l-.013.091a2.982 2.982 0 0 0 .022.506 1.518 1.518 0 0 0 .185.562l.042.06h-.002s.168.305.35.297c0 0 .02.005.04-.002a.063.063 0 0 0 .01-.003l.003-.006h.001c.019-.017.009-.168.02-.298a2.76 2.76 0 0 1 .077-.382 3.134 3.134 0 0 1 .333-.792c.012-.02.022-.034.025-.043l.002-.002.003-.005.338.226 2.531-.118.266-.4.002.002.002.002c0 .002.002.004.003.005v.002c.002.002.004.002.004.004l.001.003.002.004c.002.003.004.004.005.008a1.338 1.338 0 0 1 .066.122c.002.003.004.006.004.01.012.026.025.053.035.086.03.092.138.35.147.739.001.058 0 .114-.002.174l-.002.072c0 .035.002.074.009.105.006.03.015.055.032.06.008.002.017 0 .025-.003a.22.22 0 0 0 .048-.031.63.63 0 0 0 .098-.108c.06-.08.127-.189.212-.354.026-.046.05-.099.077-.154a3.394 3.394 0 0 0 .163-.39 1.14 1.14 0 0 0 .05-.237v-.033a.19.19 0 0 0-.02-.087.127.127 0 0 0-.08-.065c-.011-.002-.06-.012-.134-.023l-.185-.029c-.018-.001-.039-.003-.057-.008-.041-.006-.082-.012-.124-.02l-.107-.015-.048-.008-.088-.014a9.514 9.514 0 0 1-.533-.1 8.053 8.053 0 0 1-.307-.081l-.07-.021-.139-.043-.088-.028c-.009-.003-.017-.004-.024-.008l-.022-.007-.005-.002-.012-.003-.008-.003c-.007-.004-.014-.004-.02-.006l-.01-.003-.005-.002a.373.373 0 0 0-.064-.012.454.454 0 0 0-.071-.008h-.007zm-1.835 2.96a.035.035 0 0 0-.02.009c-.007.003-.012.008-.017.014a.311.311 0 0 0-.034.042.713.713 0 0 0-.063.13c0 .004 0 .006-.002.008a.714.714 0 0 0-.022.08.992.992 0 0 0-.017.2l.002.083c.01.27.078.63.266.777.263.207.397.121.443.092.073-.041.143-.166.143-.166l.248.094a.88.88 0 0 0 .045.014c.038.008.097.024.17.038a2.27 2.27 0 0 0 .387.044l.02.002h.058a1.159 1.159 0 0 0 .202-.017c.024-.004.046-.01.068-.016a.728.728 0 0 0 .071-.017.313.313 0 0 0 .114-.062l.014-.012a.518.518 0 0 0 .075-.096l.003.004c0 .003.003.009.005.014a.498.498 0 0 0 .056.103.169.169 0 0 0 .06.063c.059.031.21.075.347.055.051-.009.1-.026.145-.057a.485.485 0 0 0 .112-.149c.01-.019.02-.038.028-.06.006-.01.01-.02.014-.03.046-.112.083-.261.102-.438.01-.089.017-.183.015-.288v-.068l-.007-.12-.001-.004-.004-.008s-.002 0-.002-.002v-.011a.025.025 0 0 1-.004-.007c0-.003-.005-.006-.007-.01-.005-.012-.01-.024-.022-.03a.057.057 0 0 0-.03-.01c-.033.003-.083.037-.149.154-.197.339-.415.498-.512.558a.502.502 0 0 1-.053.028l-.114-.122-.105.012-.05.007c-.133.012-.33.027-.53.027h-.012c-.228-.003-.455-.024-.598-.089l-.127.118s-.41-.28-.545-.519l-.032-.06c0-.003-.002-.003-.003-.005-.095-.187-.082-.247-.114-.288-.005-.005-.01-.009-.017-.009zm.412 10.224a.336.336 0 0 0-.193.041.548.548 0 0 0-.299.444c-.018.167.078.508.267.712.122.132.178.274.23.425.116.322.189.655.202.789.01.115.062.066.079.001.117-.46.302-1.409.049-2.112-.04-.106-.158-.28-.335-.3zM13.78 50.03a.282.282 0 0 0-.232.105c-.434.485-.506 1.616-.133 2.144.106.151.119.067.115-.029-.03-.718.294-1.48.554-1.728.105-.1.07-.351-.118-.439a.505.505 0 0 0-.186-.053zm9.061.154a.386.386 0 0 0-.176.069.342.342 0 0 0-.153.377c.037.175.188.37.434.59.143.128.255.262.345.432.14.264.222.478.238.52.035.095.07.114.084.006.022-.166.097-1.195-.348-1.77-.09-.119-.25-.24-.424-.224zm-12.4 2.148a.259.259 0 0 0-.153.04c-.59.348-.624 1.502-.419 2.07.054.152.094.12.117-.097.049-.458.145-1.087.603-1.53.17-.162.057-.467-.147-.483z" fill="#FFF"/><path d="M19.514 20.265a8.265 8.265 0 0 0-2.371.382l-.068.017c-.007 0-.014.004-.02.005l-.014.004-.15.046c-.024.009-.048.016-.073.024a.099.099 0 0 0-.023.007l-.01.003-.059.02a4.598 4.598 0 0 0-.769.37l-.015.008a4.273 4.273 0 0 0-1.772 2.06v.003l-.002.002c-.202.498-.293.96-.32 1.367a4.024 4.024 0 0 0 .133 1.284c.077.189.44.871 1.9 1.677l.625.33a.01.01 0 0 0 .007.003l.003.001c.41.204.905.393 1.302.549l.1.04.15.061c.037.016.076.03.108.045.055.022.103.044.143.065.07.032.126.06.163.085.022.016.036.03.051.045l.012.012a.18.18 0 0 1 .032.053l.005.019.002.005a.085.085 0 0 1 .003.02c.002.023-.001.045-.005.07l-.017.082a.111.111 0 0 1-.007.025.264.264 0 0 1-.025.069.09.09 0 0 1-.034.029.087.087 0 0 1-.066 0l-.007-.003c-.01-.007-.022-.012-.035-.02a1.736 1.736 0 0 1-.1-.061.111.111 0 0 0-.055-.019c-.02.002-.034.012-.044.033a.36.36 0 0 0-.02.137l.001.041v.002c.004.178-.006.34-.023.487-.072.601-.274 1.037-.328 1.366-.002.027.03.065.046.086.124.164 1.507.262 2.086.262 1.07 0 1.488-.22 1.575-.268.098-.058.156-.108.158-.171a.196.196 0 0 0-.015-.072 5.677 5.677 0 0 1-.16-.355c-.15-.369-.178-.59-.176-.78 0-.055.003-.104.006-.157.002-.026.002-.052.003-.08.002-.05.006-.106.004-.166 0-.058-.005-.12-.013-.19a.341.341 0 0 0-.033-.123c-.015-.026-.032-.037-.054-.033a.096.096 0 0 0-.034.015.24.24 0 0 0-.037.036.396.396 0 0 1-.062.06.248.248 0 0 1-.135.059c-.03.003-.054-.007-.058-.055a.274.274 0 0 1 .012-.08c.003-.018.009-.035.015-.057a1.25 1.25 0 0 1 .138-.293c.1-.156.234-.283.397-.396l.015-.012c0-.002.004-.004.007-.004.053-.038.114-.073.175-.11.12-.07.256-.137.4-.205.37-.177.818-.362 1.326-.633a10.4 10.4 0 0 0 .808-.476c.142-.095.217-.148.266-.185.04-.03.063-.052.087-.072a.813.813 0 0 1 .064-.057c.014-.012.026-.02.041-.035.041-.03.134-.11.25-.203l.05-.042a10.337 10.337 0 0 1 .306-.236c.14-.098.261-.171.32-.17l.018.007c0 .002.003.002.005.002a.04.04 0 0 1 .01.022c.024.189 0 .302-.047.382-.102.18-.306.208-.323.549a.116.116 0 0 1-.007.041.386.386 0 0 1-.07.135l-.018.02a.495.495 0 0 1-.029.032l-.022.02a1.32 1.32 0 0 1-.088.08l-.003.001c-.092.075-.189.144-.238.21a.398.398 0 0 0-.048.085 2.761 2.761 0 0 0-.183.58c-.027.16-.05.305-.085.438a1.258 1.258 0 0 1-.405.684c-.036.031-.075.062-.116.093-.039.03-.095.068-.165.106a1.502 1.502 0 0 1-1.058.166c-.025-.005-.05-.008-.077-.015a.354.354 0 0 0-.248.012.211.211 0 0 0-.058.041l-.017.02c-.005.01-.011.014-.016.023a.226.226 0 0 0-.016.029c-.013.024-.024.05-.035.072a.766.766 0 0 0-.075.293c.003.2.163.297.428.386.001.002.003.002.005.002.081.029.176.056.278.085l.14.042c.054.017.111.034.169.05h.002c.34.102.669.207 1.254.282.59.074.774.787.774.787s.127.284.18.43v-.005l-.005-.012a6.07 6.07 0 0 0 .679-.494l.075-.063c.17-.15.337-.322.454-.494.019-.026.034-.053.051-.079a1.05 1.05 0 0 0 .046-.085l.002-.004.008-.017a.05.05 0 0 1 .007-.013c.002-.004.004-.007.004-.01l.001-.004c.002 0 0 0 .002-.002.004-.007.005-.015.008-.022.006-.017.013-.031.018-.048l.005-.014c0-.003.001-.009.003-.012l.009-.033.013-.044v-.004l.002-.006c.007-.028.013-.055.018-.086.002-.007.006-.017.006-.026a.345.345 0 0 0 .008-.044l.009-.047v-.005l.001-.003c.004-.016.004-.031.005-.048.002-.016.006-.031.007-.047v-.01l.004-.02c.001-.03.005-.059.006-.09v-.005l.004-.019c.002-.03.003-.065.003-.096.002-.012.002-.025.002-.036.002-.015.002-.029.002-.042l.001-.047v-.2c-.001-.058-.005-.115-.005-.173v-.002l-.001-.002v-.014a89.961 89.961 0 0 1-.01-.168v-.003l-.002-.004a5.85 5.85 0 0 0-.014-.164c0-.003 0-.009-.002-.014v-.01c-.001-.03-.007-.058-.008-.087l-.01-.09v-.005l-.002-.012a2.144 2.144 0 0 1-.013-.11c-.002-.018-.006-.037-.01-.056 0-.01.001-.019-.002-.027-.002-.023-.006-.045-.009-.067-.003-.03-.009-.059-.012-.088l-.005-.024a.064.064 0 0 0-.003-.019c-.002-.019-.005-.037-.009-.056-.003-.026-.008-.052-.012-.077l-.01-.064-.02-.108c0-.005-.004-.01-.004-.017a1.013 1.013 0 0 0-.012-.07c-.001-.009-.005-.016-.007-.024a.499.499 0 0 0-.008-.053c-.001-.014-.005-.026-.007-.038a7.247 7.247 0 0 0-.037-.181c-.013-.07-.025-.136-.04-.208v-.002l-.018-.092-.028-.126v-.008a.146.146 0 0 0-.007-.03c0-.008-.002-.015-.004-.023a.852.852 0 0 0-.012-.057l-.001-.009c-.002-.01-.006-.018-.007-.029-.004-.013-.005-.025-.009-.04 0-.006 0-.011-.003-.015v-.001c0-.005 0-.007-.002-.01v-.006a.049.049 0 0 1-.005-.022l-.002-.003-.001-.013-.009-.034v-.005c-.002 0-.002-.002-.002-.002-.001-.005-.001-.012-.003-.015-.002-.009-.001-.017-.005-.026 0-.002 0-.003-.002-.005 0-.003 0-.007-.002-.012l-.004-.026v-.001l-.002-.006-.012-.047v-.007l-.002-.004-.002-.007-.005-.025v-.002l-.002-.002a.628.628 0 0 0-.011-.055v-.007l-.002-.001v-.002c-.002-.009-.003-.02-.007-.03-.001-.011-.005-.021-.007-.03l-.006-.033-.005-.01v-.001-.01c0-.003-.002-.006-.004-.01v-.001l-.014-.062-.01-.034v-.004c-.006-.03-.015-.061-.022-.092v-.002l-.001-.005a.05.05 0 0 1-.004-.016v-.001l-.003-.009-.016-.062v-.005c-.001-.003-.003-.005-.003-.008 0-.002 0-.005-.002-.005v-.004l-.003-.015c-.002 0-.002 0-.002-.002l-.013-.055c0-.002-.002-.002-.002-.003v-.004l-.002-.007-.005-.013c0-.004 0-.007-.002-.009v-.003l-.012-.042-.003-.015-.002-.004c-.001-.01-.005-.02-.007-.03l-.001-.002c-.005-.016-.007-.03-.012-.043l-.003-.017h-.002v-.003c-.004-.01-.005-.02-.009-.028v-.002l-.003-.012c-.005-.018-.012-.036-.015-.053v-.003l-.002-.004-.005-.015-.002-.004a3.753 3.753 0 0 0-.054-.178v-.005c-.002 0 0-.002-.002-.002a.116.116 0 0 0-.005-.014v-.003c-.003-.01-.009-.02-.01-.032-.005-.009-.007-.02-.012-.031l-.004-.014a.033.033 0 0 1-.003-.014c-.003 0-.002 0-.002-.001l-.013-.037-.005-.018h-.002c-.003-.007-.003-.012-.005-.02h-.002s0-.004-.002-.006l-.001-.003v-.002l-.01-.026a.152.152 0 0 1-.009-.026v-.001l-.002-.002v-.002a.12.12 0 0 1-.008-.022v-.002a.865.865 0 0 1-.022-.053v-.002l-.005-.012-.005-.012a.598.598 0 0 0-.022-.058s-.002 0-.002-.002-.002-.002-.002-.003a2.213 2.213 0 0 0-.109-.235c-.147-.249-.135-.298-.208-.514a2.318 2.318 0 0 1-.087-.522l.003.009a.475.475 0 0 1-.005-.022v-.004l-.003-.014v-.022a.09.09 0 0 1 .007-.03v-.002a.024.024 0 0 1 .008-.01v-.004c.004-.005.007-.007.012-.01v-.002l.017-.007a.05.05 0 0 1 .017-.003l.005-.002c.007 0 .016 0 .022.002l.007.001.027.007c.004 0 .005 0 .007.002a.097.097 0 0 1 .036.012h.002a1.036 1.036 0 0 0 .396.369l.172.267a1.32 1.32 0 0 1-.005-.303c.054-.391-.044-.633.484-.92.343-.184.864-1.004 1.237-1.556a.198.198 0 0 0 .015-.05c.002-.039-.054-.005-.054-.005h-.002a1.888 1.888 0 0 1-1.602.384 9.33 9.33 0 0 0-.555-.108c-.27 0-.285.129-.27.2l.014.042.018.065c.019.077.12.285.046.285 0 0-.039.022-.102-.01a.66.66 0 0 1-.275-.167c-.146-.147-.178-.45-.493-.689l-.006-.005c-.02-.014-.039-.028-.06-.041l-.08-.053-.045-.03a12.796 12.796 0 0 0-1.42-.8 5.024 5.024 0 0 0-.86-.355 5.259 5.259 0 0 0-.948-.245 8.483 8.483 0 0 0-1.865-.177zm8.913 1.492s-.248 1.357-.9 2.014c0 0-.052.096-.025.125.026.027.462.075.823-.537.364-.61.34-1.167.102-1.602zm-17.97.184c-.25.46-.277 1.046.106 1.69.384.645.843.594.871.566.03-.029-.028-.132-.028-.132-.687-.692-.949-2.124-.949-2.124zm.458.112c-.045-.009-.06.026.056.195v.002c.295.439.646.96.93 1.219.006.007.477.471.537.771.059.3.132.784-.203 1.814-.065.163-.218.535-.23.549a17.2 17.2 0 0 1-.078.217c-.017.047-.033.096-.05.148a16.567 16.567 0 0 0-.203.613c-.011.031-.02.064-.03.097a1.18 1.18 0 0 1-.021.065l-.046.15a7.147 7.147 0 0 0-.081.278c-.094.321-.173.626-.23.92l-.027.134-.029.179c-.01.068-.018.137-.025.205l-.001-.001s-.212 1.123.337 2.275l.131.245c.188.32.574.881 1.184 1.35a.226.226 0 0 0 .048-.004.344.344 0 0 0 .178-.113c.014-.016.027-.035.04-.052.01-.014.02-.024.03-.04.199-.3.309-.853.314-1.194a.744.744 0 0 0-.023-.24l-.002-.004a.122.122 0 0 0-.02-.036c-.603-.653-.805-.833-1.106-1.26a.825.825 0 0 1-.088-.17 1.648 1.648 0 0 1-.077-.742c0-.012.001-.022.003-.034l.003-.03c.021-.179.063-.433.119-.73a45.263 45.263 0 0 1 .36-1.71 68.366 68.366 0 0 1 .297-1.252c.123-.497.231-.905.298-1.12l.003-.008.002-.003v-.002a.81.81 0 0 0 .04-.23c-.001-.046-.01-.08-.022-.11a.154.154 0 0 0-.093-.09c-.006-.002-.011-.007-.018-.007-.014-.005-.03-.005-.043-.007-.015 0-.029 0-.042.004a.573.573 0 0 1-.275-.045c.373-.725.886-1.579 1.469-2.157-.152.028-.567.103-1.706.305-.148.028-.287.04-.421.04a1.884 1.884 0 0 1-1.064-.319l-.034-.02a.32.32 0 0 0-.091-.045zm2.72 4.538l-.004.005-.008.005c-.059.058-.056.302-.015.499a.961.961 0 0 1 .028.36l-.007.087-.012.07-.014.095c-.017.09-.038.19-.058.3-.008.053-.019.11-.03.17l-.023.157a3.952 3.952 0 0 0-.05.571V28.965c.008.171.045.3.11.456.03.077.06.165.114.257l.001.004a.448.448 0 0 0 .1.132c.279.305.812.43 1.322.538.161.034.314.06.444.077.04.005.077.01.11.012.395.038.796-.05 1.051-.17.123-.056.213-.121.25-.183a.113.113 0 0 0 .02-.08.164.164 0 0 0-.02-.04.949.949 0 0 0-.059-.072c-.13-.146-.253-.147-.402-.134-.005.002-.009.002-.015.002a3.624 3.624 0 0 1-.263.017c-.106 0-.207-.005-.302-.015-.512-.06-.883-.295-1.144-.65a1.922 1.922 0 0 1-.165-.262l-.05-.103a3.653 3.653 0 0 1-.288-1.1 2.584 2.584 0 0 0-.037-.248l-.015-.073-.004-.02v-.004a1.06 1.06 0 0 0-.02-.066.816.816 0 0 0-.171-.332l-.022-.028c-.005-.005-.009-.008-.012-.015-.042-.051-.101-.125-.17-.185a.582.582 0 0 0-.134-.09h-.036zm5.67 10.518c-.021-.001-.195 0-.374.002H18.895l-.04.002H18.636l-.117.002s-.001-.002-.005 0h-.007l-.003.002a.023.023 0 0 0-.014.012.016.016 0 0 1-.001.005.062.062 0 0 0-.004.032.219.219 0 0 1 .005.033c.009.06.026.192.061.34a2.706 2.706 0 0 0 .12.345v.002c.006.01.011.023.016.033a.69.69 0 0 0 .066.106.645.645 0 0 0 .06.076c.015.017.032.032.047.048.022.02.044.037.065.053l.017.015a.883.883 0 0 0 .05.034v.002c.003 0 .003 0 .004.002.01.005.022.014.036.02 0 0 .002 0 .003.002l.004.002.032.014c.012.005.022.01.034.013a.316.316 0 0 0 .084.026.454.454 0 0 0 .083.014h.004l.066.007c.092.008.199.012.331.022.056.003.112.005.167.005.268 0 .52-.048.669-.156a.342.342 0 0 0 .128-.176c.068-.268.116-.835.116-.835s.003-.045-.009-.045c-.161-.043-.777-.048-.78-.046h-.005c-.01.002-.026.012-.036.043a.027.027 0 0 0-.004.013.419.419 0 0 0-.02.074.39.39 0 0 0-.017.053v.002a.446.446 0 0 0-.017.057c-.047.145-.114.315-.182.315-.113-.003-.225-.346-.27-.434a.817.817 0 0 0-.027-.055c-.001-.006-.006-.013-.008-.018-.005-.012-.007-.018-.012-.024 0-.004-.003-.009-.005-.01l-.002-.007s0-.002-.002-.002l-.001-.002c-.005-.007-.019-.017-.05-.017z" stroke="#C3993F" stroke-width=".572" fill="#C3993F"/><path d="M28.933 19.974c-.19.003-.294.046-.338.082h-.002c-.001.002-.035.044.092.077.032.008.086.007.153.022.142.033.338.103.506.232a1.036 1.036 0 0 1 .33.418c.051.12.102.28.148.514.012.058.024.113.037.167.087.377.197.654.432.7.015.006.029.011.045.013h.055c.136 0 .332-.031.517-.035.185-.003.354.023.435.129a.262.262 0 0 1 .029.051c.012.03.02.065.029.108l.003.01c0 .01.004.026.005.04l.005.034v.006c.041.344.006.95-.022 1.347l-.013.19c-.004.048-.005.088-.007.12-.012.167-.041.406-.068.653-.027.242-.053.492-.061.686l-.003.113c0 .03.001.06.003.087l.005.05c.003.03.009.052.017.07.01.021.022.036.039.036.012-.001.029-.013.048-.03.05-.05.118-.165.215-.37.143-.31.258-.68.358-1.105.114-.481.21-1.035.304-1.671.097-.657.258-1.176-.09-1.616-.003-.002-.003-.004-.003-.006l-.051-.054-.029-.033c-.008-.007-.017-.012-.024-.02a1.544 1.544 0 0 0-.266-.198h-.002a2.043 2.043 0 0 0-.243-.135s-.003-.004-.012-.007c-.018-.009-.062-.03-.129-.06l-.237-.108a9.178 9.178 0 0 0-.506-.2c-.027-.01-.054-.02-.08-.028-.61-.2-1.161-.25-1.161-.25-.078-.005-.13-.012-.176-.016a1.834 1.834 0 0 0-.241-.013h-.046zm-9.52.922l-.045.001a4.39 4.39 0 0 0-1.334.225c-.007 0-.012.003-.015.003l-.004.002a6.984 6.984 0 0 0-.367.14c-.025.01-.048.023-.074.035-.078.034-.16.07-.236.11a5.589 5.589 0 0 0-2.336 2.293c-.184.342-.323.69-.405 1.03-.005.016-.007.032-.011.049l-.012.048c-.005.022-.007.042-.01.063a.873.873 0 0 0-.008.052c-.001.017-.004.036-.004.051a.27.27 0 0 0 .015.101l.006.009c.009.017.02.029.036.036.003.002.006.005.01.006a.142.142 0 0 0 .039.006l.01-.002a.631.631 0 0 0 .23-.103l.102-.062c.77-.449 1.557-.716 2.12-.819.064-.012.124-.02.182-.027a1.65 1.65 0 0 1 .424-.01.884.884 0 0 1 .089.018l.03.007a.35.35 0 0 1 .041.015c.014.006.03.01.041.016l.003.003c.012.005.019.012.028.019.01.007.02.012.027.019.003.003.003.007.006.01.009.01.017.02.023.031a.17.17 0 0 1 .005.041.18.18 0 0 1-.01.041.255.255 0 0 1-.055.078.324.324 0 0 0-.025.023l-.026.021-.034.024-.012.007-.01.005c-.008.005-.015.01-.024.014-.007.001-.015.007-.023.012-.019.008-.043.02-.072.036l-.035.019-.15.084c-.062.037-.134.079-.212.127-.315.195-.714.47-1.002.75a.436.436 0 0 0-.05.055.53.53 0 0 0-.107.194.488.488 0 0 0-.014.207.75.75 0 0 0 .107.275c.003.007.008.012.013.02l.024.034a.9.9 0 0 0 .071.086l.011.014c.045.046.092.086.14.123l.01.007v.002c.049.034.098.067.147.09.05.025.115.056.19.088a5.403 5.403 0 0 0 .277.127.128.128 0 0 0 .027.012c.073.033.151.07.233.106l.185.088c.276.13.599.286.959.473.2.103.36.21.488.316l.05.035c.04.036.081.073.117.109.086.084.157.167.215.25a3.088 3.088 0 0 1 .24.418c.013.027.025.055.039.08h.001c0 .002.002 0 .004.002.001.002.002.002.003.002.005 0 .007-.003.009-.008 0-.012.003-.024.003-.038l.005-.04c.004-.037.007-.077.008-.12V28.547a.196.196 0 0 0 .002-.033c.002-.012.002-.022.002-.034l.003-.02v-.021l.002-.085v-.09c.002-.437-.032-1-.07-1.452-.003-.031-.004-.06-.008-.091 0-.016-.002-.03-.003-.045a7.807 7.807 0 0 0-.008-.104c-.002-.022-.006-.041-.006-.062l-.007-.05a9 9 0 0 0-.015-.17l-.007-.066a1.568 1.568 0 0 1-.008-.079l-.007-.048a.176.176 0 0 0-.005-.041l-.009-.08-.035-.325a1.72 1.72 0 0 0-.012-.092 1.255 1.255 0 0 0-.007-.076l-.003-.03a33.811 33.811 0 0 1-.051-.506c-.014-.132-.024-.268-.036-.407-.008-.089-.017-.178-.022-.265a17.654 17.654 0 0 1-.046-.763c-.002-.074-.005-.144-.005-.213a10.225 10.225 0 0 1-.003-.223c0-.075.002-.145.003-.216 0-.027.002-.055.005-.079V22.753c0-.004 0-.007.002-.01.013-.268.034-.515.104-.716.008-.025.022-.048.032-.07a.717.717 0 0 1 .154-.242.54.54 0 0 1 .058-.048c.02-.017.037-.034.06-.05a1.795 1.795 0 0 0 .065-.046l.062-.04c.003 0 .007-.003.008-.006.032-.02.066-.036.099-.055.037-.02.072-.04.108-.056.034-.018.068-.035.1-.049a.777.777 0 0 0 .083-.044.41.41 0 0 0 .133-.125c.003-.002.005-.005.007-.009l.001-.003c.004-.007.004-.014.006-.02.006-.015.013-.03.013-.044a.12.12 0 0 0-.008-.043l-.007-.01c0-.003-.002-.005-.004-.007a.127.127 0 0 0-.02-.024h-.002a.292.292 0 0 0-.117-.05c-.005-.003-.008-.003-.017-.005a4.397 4.397 0 0 0-.884-.085h-.002zM9.116 29.438c-.108-.014-.228.242-.332.76-.196.982-.31 1.256-.516 3.032-.186 1.611-.017 5.067.152 6.069.405 2.408 2.878 7.052 3.003 6.558.123-.481-1.932-3.675-1.422-5.18.264-.78 1.393-1.362 2.127-1.38 1.223-.036.695-.321.376-.858-.21-.354.205-.968.437-1.445.128-.265.011-.704-.227-.95-.664-.693-2.312-2.156-2.698-2.83-.382-.668-.545-1.13-.6-2.394-.04-.907-.16-1.367-.3-1.382z" fill="#081E3F"/></g><path d="M7.151 58.772v3.962c0 .525.23.724.597.724.366 0 .596-.2.596-.724v-3.962c0-.524-.23-.724-.596-.724s-.597.2-.597.724zM6 62.66v-3.816C6 57.671 6.618 57 7.748 57s1.748.67 1.748 1.845v3.816c0 1.174-.618 1.845-1.748 1.845S6 63.836 6 62.661zm5.39-4.529v2.212h1.486v1.049H11.39v3.03H10.24v-7.34h3.046v1.05H11.39zm3.6 0v2.212h1.487v1.049H14.99v3.03h-1.152v-7.34h3.046v1.05h-1.894zm2.45 6.29v-7.338h1.151v7.338H17.44zm4.239-2.736h1.088v.975c0 1.174-.586 1.845-1.716 1.845s-1.717-.67-1.717-1.845v-3.816c0-1.174.586-1.845 1.717-1.845 1.13 0 1.716.67 1.716 1.845v.713H21.68v-.786c0-.524-.23-.724-.597-.724-.366 0-.597.2-.597.724v3.962c0 .525.23.713.597.713.366 0 .597-.188.597-.713v-1.048zm1.79 2.736v-7.338h1.15v7.338h-1.15zm4.542-7.338l1.172 7.338h-1.162l-.199-1.331H26.41l-.198 1.331h-1.057l1.172-7.338h1.685zm-.9 1.3l-.555 3.71h1.11l-.555-3.71zm2.606 6.038v-7.338h1.151v6.29h1.895v1.048h-3.046zm5.024-5.577c0-1.174.575-1.845 1.695-1.845s1.696.67 1.696 1.845v.23h-1.089v-.303c0-.524-.209-.724-.575-.724-.367 0-.576.2-.576.724 0 1.51 2.25 1.792 2.25 3.889 0 1.174-.586 1.845-1.716 1.845s-1.717-.67-1.717-1.845v-.45h1.089v.523c0 .525.23.713.596.713.367 0 .597-.188.597-.713 0-1.51-2.25-1.792-2.25-3.889zm5.756-1.761c1.152 0 1.717.64 1.717 1.813v.954c0 1.175-.565 1.814-1.717 1.814h-.544v2.757h-1.151v-7.338h1.695zm0 1.048h-.544v2.485h.544c.367 0 .565-.168.565-.692v-1.1c0-.525-.198-.693-.565-.693zm3.308.64v3.962c0 .525.23.724.596.724.367 0 .597-.2.597-.724v-3.962c0-.524-.23-.724-.597-.724-.366 0-.596.2-.596.724zm-1.152 3.889v-3.816c0-1.174.618-1.845 1.748-1.845s1.748.67 1.748 1.845v3.816c0 1.174-.617 1.845-1.748 1.845-1.13 0-1.748-.67-1.748-1.845zm6.699 1.761l-1.434-5.315v5.315h-1.036v-7.338h1.444l1.183 4.392v-4.392h1.026v7.338h-1.183zm1.863-5.577c0-1.174.575-1.845 1.695-1.845s1.696.67 1.696 1.845v.23h-1.089v-.303c0-.524-.209-.724-.575-.724-.367 0-.576.2-.576.724 0 1.51 2.25 1.792 2.25 3.889 0 1.174-.586 1.845-1.716 1.845s-1.717-.67-1.717-1.845v-.45h1.089v.523c0 .525.23.713.597.713.366 0 .596-.188.596-.713 0-1.51-2.25-1.792-2.25-3.889zm5.118-.073v3.962c0 .525.23.724.596.724.367 0 .597-.2.597-.724v-3.962c0-.524-.23-.724-.597-.724-.366 0-.596.2-.596.724zm-1.151 3.889v-3.816c0-1.174.617-1.845 1.747-1.845 1.13 0 1.748.67 1.748 1.845v3.816c0 1.174-.617 1.845-1.748 1.845-1.13 0-1.747-.67-1.747-1.845zM63 64.422h-1.172c-.063-.188-.105-.304-.105-.901v-1.153c0-.682-.23-.934-.753-.934h-.398v2.988H59.42v-7.338h1.738c1.193 0 1.706.555 1.706 1.688v.576c0 .755-.24 1.248-.754 1.489.576.241.764.797.764 1.562v1.132c0 .357.01.619.126.891zm-1.873-6.29h-.555v2.254h.45c.429 0 .69-.189.69-.776v-.723c0-.524-.177-.755-.585-.755zM8.956 69.255v3.963c0 .524.23.723.596.723.367 0 .597-.199.597-.723v-3.963c0-.524-.23-.723-.597-.723-.366 0-.596.199-.596.723zm-1.151 3.89v-3.817c0-1.174.617-1.845 1.747-1.845 1.13 0 1.748.671 1.748 1.845v3.816c0 1.175-.617 1.846-1.748 1.846-1.13 0-1.747-.671-1.747-1.846zm5.39-4.53v2.213h1.486v1.048h-1.486v3.03h-1.152v-7.339h3.046v1.049h-1.894zm5.222 0v2.213h1.487v1.048h-1.487v3.03h-1.15v-7.339h3.045v1.049h-1.895zm2.45 6.29v-7.338h1.15v7.339h-1.15zm1.936-7.338h1.151v5.661c0 .524.23.713.597.713.366 0 .596-.189.596-.713v-5.66h1.089v5.587c0 1.174-.586 1.845-1.717 1.845-1.13 0-1.716-.67-1.716-1.845v-5.588zm8.394 0l1.172 7.339h-1.162l-.198-1.332h-1.413l-.2 1.332H28.34l1.172-7.339h1.685zm-.9 1.3l-.555 3.711h1.11l-.555-3.71zm2.271-.251v-1.049h3.559v1.049h-1.204v6.29h-1.151v-6.29h-1.204zm5.212 3.145v3.145H36.63v-7.339h1.151v3.145h1.309v-3.145h1.172v7.339h-1.172V71.76H37.78zm3.318 3.145v-7.339h1.151v6.29h1.895v1.049h-3.046zm4.7-6.29v2.044h1.58v1.048h-1.58v2.15h1.988v1.048h-3.14v-7.339h3.14v1.049h-1.988zm2.365 0v-1.049h3.559v1.049h-1.204v6.29h-1.151v-6.29h-1.204zm4.06 6.29v-7.339h1.152v7.339h-1.151zm4.24-2.737h1.088v.975c0 1.175-.586 1.846-1.716 1.846s-1.717-.671-1.717-1.846v-3.816c0-1.174.586-1.845 1.717-1.845 1.13 0 1.716.671 1.716 1.845v.713h-1.088v-.786c0-.524-.23-.723-.597-.723-.366 0-.596.199-.596.723v3.963c0 .524.23.713.596.713.367 0 .597-.189.597-.713v-1.049zm1.643-2.84c0-1.175.576-1.846 1.696-1.846s1.695.671 1.695 1.845v.231H60.41v-.304c0-.524-.21-.723-.576-.723s-.576.199-.576.723c0 1.51 2.25 1.793 2.25 3.89 0 1.174-.585 1.845-1.716 1.845-1.13 0-1.716-.671-1.716-1.846v-.45h1.088v.524c0 .524.23.713.597.713.366 0 .596-.189.596-.713 0-1.51-2.25-1.793-2.25-3.89z" fill="#FFF"/></g></svg>