<svg width="111" height="62" xmlns="http://www.w3.org/2000/svg"><defs><linearGradient x1="0%" y1="50%" y2="50%" id="a"><stop stop-color="#A31955" offset="0%"/><stop stop-color="#FA730D" offset="100%"/></linearGradient></defs><g fill="none" fill-rule="evenodd"><g fill-rule="nonzero"><path d="M14.219 0h82.562C104.634 0 111 6.06 111 13.535v34.93C111 55.94 104.634 62 96.781 62H14.219C6.366 62 0 55.94 0 48.465v-34.93C0 6.06 6.366 0 14.219 0z" fill="#ECECEC"/><path d="M14.282 1C6.946 1 1 6.645 1 13.609V48.39C1 55.355 6.946 61 14.282 61h82.436C104.054 61 110 55.355 110 48.391V13.61C110 6.645 104.054 1 96.718 1H14.282z" fill="#FFF"/></g><g transform="translate(32 7)"><path fill="#24BB52" d="M38.4954545 0.44L38.4954545 11.3608 37.1818182 11.3608 37.1818182 0.44z"/><path d="M5.726 7.74V6.193h5.198c.05.268.076.59.076.933 0 1.166-.317 2.6-1.336 3.625-.99 1.039-2.259 1.589-3.934 1.589C2.618 12.339 0 9.796 0 6.672 0 3.548 2.618 1 5.726 1c1.722 0 2.948.678 3.87 1.562L8.505 3.658a3.919 3.919 0 0 0-2.779-1.11 3.894 3.894 0 0 0-2.856 1.18 4.22 4.22 0 0 0 .002 5.885 3.894 3.894 0 0 0 2.854 1.177c1.472 0 2.314-.594 2.85-1.13.436-.44.72-1.066.834-1.92H5.726z" fill="#4383F3"/><path d="M19.61 8.184c0 2.174-1.774 3.775-3.942 3.775a3.937 3.937 0 0 1-2.795-1.084 3.684 3.684 0 0 1-1.146-2.695c0-2.192 1.773-3.78 3.941-3.78a3.928 3.928 0 0 1 2.8 1.083 3.675 3.675 0 0 1 1.141 2.701zm-1.728 0c0-1.364-1.027-2.292-2.218-2.292-1.187 0-2.21.928-2.21 2.288 0 1.346 1.023 2.288 2.21 2.288 1.19 0 2.213-.942 2.213-2.288l.005.004z" fill="#E32235" fill-rule="nonzero"/><path d="M27.79 8.184c0 2.174-1.772 3.775-3.94 3.775a3.937 3.937 0 0 1-2.795-1.084 3.684 3.684 0 0 1-1.146-2.695 3.68 3.68 0 0 1 1.144-2.698A3.932 3.932 0 0 1 23.85 4.4a3.928 3.928 0 0 1 2.8 1.083 3.675 3.675 0 0 1 1.14 2.701zm-1.726 0c0-1.364-1.028-2.292-2.219-2.292-1.186 0-2.209.928-2.209 2.288 0 1.346 1.023 2.288 2.21 2.288 1.19 0 2.213-.942 2.213-2.288l.005.004z" fill="#F8C100" fill-rule="nonzero"/><path d="M45.09 9.425l1.296.862c-.91 1.394-2.677 2.02-4.303 1.526-1.625-.494-2.704-1.985-2.628-3.633 0-2.244 1.627-3.78 3.581-3.78 1.973 0 2.937 1.562 3.25 2.407l.173.427-5.077 2.094c.39.757.995 1.144 1.84 1.144.85 0 1.442-.414 1.873-1.047h-.004zm-.59-2.763c-.182-.471-.745-.801-1.41-.801a2.145 2.145 0 0 0-1.467.7 2.009 2.009 0 0 0-.514 1.504L44.5 6.662z" fill="#E32235" fill-rule="nonzero"/><path d="M35.536 11.396c0 2.79-1.69 3.925-3.69 3.925-1.508.007-2.87-.872-3.441-2.222l1.481-.599c.264.616.91 1.338 1.955 1.338 1.282 0 2.073-.77 2.073-2.213v-.541h-.06a2.677 2.677 0 0 1-2.045.858c-1.94 0-3.718-1.642-3.718-3.758 0-2.13 1.777-3.784 3.718-3.784.927 0 1.664.396 2.046.845h.059v-.616h1.622v6.767zm-1.5-3.212c0-1.329-.909-2.297-2.072-2.297-1.178 0-2.164.968-2.164 2.297 0 1.311.986 2.266 2.164 2.266 1.159 0 2.072-.955 2.072-2.266z" fill="#4383F3" fill-rule="nonzero"/></g><g transform="translate(17 36)" fill-rule="nonzero"><path d="M57.955 15.543c-.2.253-.478.446-.83.577a3.453 3.453 0 0 1-1.193.193c-.466 0-.875-.099-1.227-.302a2.061 2.061 0 0 1-.824-.88 2.987 2.987 0 0 1-.301-1.32v-.418c0-.809.198-1.441.596-1.898a2.095 2.095 0 0 1 1.665-.682c.614 0 1.102.148 1.46.44.358.297.574.715.648 1.27h-.938c-.102-.643-.488-.962-1.147-.962-.432 0-.756.149-.978.451a2.252 2.252 0 0 0-.34 1.32v.413c0 .577.119 1.028.369 1.347.25.319.602.478 1.045.478.489 0 .835-.11 1.046-.324v-1.045h-1.137v-.71h2.086v2.052zm-5.353.704h-.949l-2.448-3.806v3.806h-.955v-5.362h.955l2.454 3.816v-3.817h.943v5.363zm-5.528 0h-.949v-5.362h.949v5.362zm-1.727-4.609H43.63v4.609h-.95v-4.609h-1.698v-.753h4.364v.753zm-7.455 2.607h1.602l-.8-2.222-.802 2.222zm1.864.754h-2.131l-.443 1.248h-.995l2.074-5.362h.858l2.086 5.362h-1l-.45-1.248zm-6.95-1.568h.984c.324 0 .568-.077.755-.236.182-.16.273-.374.273-.65 0-.285-.085-.511-.255-.665-.171-.16-.415-.236-.75-.242h-1.006v1.793zm1.063.748h-1.062v2.068h-.955v-5.362h1.932c.636 0 1.125.142 1.472.417.34.275.511.677.511 1.205 0 .357-.085.66-.261.896a1.716 1.716 0 0 1-.739.561L36 16.197v.05h-1.023l-1.108-2.068zm-5.102-.33h-2.261v1.65h2.642v.748H25.55v-5.362h3.568v.753h-2.613v1.48h2.261v.731zm-6.443 1.65h2.488v.748H21.37v-5.362h.955v4.614zm-2.006.044c-.199.253-.477.446-.83.578-.384.134-.79.2-1.198.192-.46 0-.87-.099-1.222-.302a2.028 2.028 0 0 1-.824-.88 2.987 2.987 0 0 1-.3-1.32v-.418c0-.809.198-1.441.596-1.898a2.095 2.095 0 0 1 1.665-.682c.613 0 1.102.148 1.46.44.358.297.574.715.648 1.27h-.938c-.102-.643-.489-.962-1.148-.962-.432 0-.755.149-.977.451a2.252 2.252 0 0 0-.34 1.32v.413c0 .577.118 1.028.368 1.347.25.319.603.478 1.046.478.488 0 .835-.11 1.04-.324v-1.045h-1.131v-.71h2.085v2.052zm-6.13-2.117c0-.594-.114-1.045-.341-1.364-.228-.32-.557-.479-.978-.479-.414 0-.738.16-.966.473-.257.4-.382.866-.358 1.337v.308c0 .588.114 1.045.353 1.364.218.313.587.495.977.484.42 0 .744-.16.972-.473.227-.314.34-.77.34-1.375v-.275zm.965.275c.01.474-.088.945-.284 1.38a2.058 2.058 0 0 1-.795.913 2.219 2.219 0 0 1-1.193.319c-.45 0-.847-.11-1.194-.319a2.11 2.11 0 0 1-.806-.907 3.108 3.108 0 0 1-.29-1.353v-.303c0-.522.09-.984.284-1.38.188-.402.455-.71.801-.919a2.219 2.219 0 0 1 1.193-.319c.455 0 .847.11 1.194.314.34.208.613.511.8.907.188.39.285.847.285 1.375l.005.292zm-6.295-.275c0-.594-.114-1.045-.347-1.364-.227-.32-.556-.479-.983-.479-.409 0-.738.16-.965.473-.258.4-.383.866-.358 1.337v.308c0 .588.113 1.045.352 1.364.22.314.59.497.983.484.42 0 .744-.16.971-.473.228-.314.341-.77.341-1.375l.006-.275zm.954.275c.01.474-.087.945-.284 1.38a2.024 2.024 0 0 1-.795.913c-.341.215-.744.319-1.193.319-.45 0-.847-.11-1.193-.319a2.11 2.11 0 0 1-.807-.907 3.108 3.108 0 0 1-.29-1.353v-.303c0-.522.097-.984.284-1.38.193-.402.455-.71.807-.919.34-.214.739-.319 1.193-.319.443 0 .841.11 1.193.314.341.208.608.511.796.907.193.39.284.847.284 1.375l.005.292zm-5.437 1.842c-.199.253-.477.446-.83.578-.384.134-.79.2-1.198.192-.46 0-.87-.099-1.228-.302a2.05 2.05 0 0 1-.818-.88A2.987 2.987 0 0 1 0 13.81v-.418c0-.809.199-1.441.597-1.898a2.095 2.095 0 0 1 1.664-.682c.614 0 1.097.148 1.46.44.359.297.574.715.648 1.27h-.937c-.102-.643-.489-.962-1.154-.962-.426 0-.75.149-.971.451-.25.396-.37.856-.347 1.32v.413c0 .577.125 1.028.375 1.347.25.319.597.478 1.046.478.488 0 .835-.11 1.04-.324v-1.045H2.283v-.71h2.091v2.052z" fill="#121212"/><path d="M74.585 12.985c.027-.38-.052-.759-.227-1.1-.153-.236-.398-.357-.722-.357-.324 0-.556.11-.71.33-.148.225-.227.572-.239 1.045v1.21c-.026.385.052.77.228 1.116.159.248.397.369.727.369.318 0 .551-.11.705-.341.147-.22.227-.578.238-1.062v-1.21zm.983 1.001c0 .77-.159 1.348-.477 1.738-.318.391-.796.589-1.449.589-.636 0-1.114-.193-1.437-.572-.324-.385-.49-.946-.495-1.694v-.924c0-.77.154-1.348.472-1.732.318-.386.801-.578 1.454-.578.648 0 1.125.187 1.444.561.318.374.482.935.488 1.683v.93zm-5.483 1.315c.182 0 .324.044.426.137a.481.481 0 0 1 .148.358.466.466 0 0 1-.148.346c-.102.094-.244.138-.426.138-.176 0-.318-.044-.42-.138a.444.444 0 0 1-.154-.346c0-.143.051-.264.154-.357.096-.094.238-.138.42-.138zm-5.13-1.716l.318-2.695h3.17v.77h-2.352l-.16 1.276c.285-.143.601-.215.921-.209.568 0 1 .165 1.313.484.312.33.466.77.466 1.32 0 .544-.17.973-.512 1.298-.352.324-.824.484-1.426.484-.54 0-.988-.138-1.34-.418a1.46 1.46 0 0 1-.58-1.1h.954c.034.258.137.456.307.6.17.137.386.203.653.203.302 0 .54-.099.71-.292.171-.198.25-.462.25-.803 0-.33-.09-.583-.278-.77a1.03 1.03 0 0 0-.767-.286c-.182 0-.33.022-.454.061a1.323 1.323 0 0 0-.41.253l-.783-.176z" fill="#EA5316"/><path d="M75 1.793h-.824l-.994 3.223-.784-3.223h-1.063l1.324 4.719h.898l1.023-3.245 1.04 3.245h.897l1.324-4.719h-1.063l-.772 3.256L75 1.793zm-5.466 1.034c.17.182.273.451.296.808v.078h-2.086c.057-.364.17-.65.353-.853a.944.944 0 0 1 .727-.302c.307 0 .54.088.71.275v-.006zm.511 3.542c.316-.149.585-.377.779-.66l-.591-.544a1.494 1.494 0 0 1-1.216.588c-.358 0-.653-.11-.886-.341a1.396 1.396 0 0 1-.398-.924h3.165v-.429c0-.748-.176-1.331-.54-1.738a1.929 1.929 0 0 0-1.534-.616 2.08 2.08 0 0 0-1.915 1.177 2.757 2.757 0 0 0-.284 1.265v.127c0 .704.222 1.264.648 1.694a2.291 2.291 0 0 0 1.682.632c.397 0 .767-.077 1.09-.231zM64.631.968c.108.105.261.16.454.16.2 0 .352-.055.455-.165a.541.541 0 0 0 .17-.396.538.538 0 0 0-.17-.407c-.103-.11-.256-.16-.455-.16-.193 0-.346.055-.454.165a.551.551 0 0 0-.16.401.56.56 0 0 0 .16.402zm1 .825H64.54v4.719h1.09V1.793zm-5.034 0h-1.131l1.699 4.719h.943l1.682-4.719h-1.125L61.642 5.17l-1.045-3.377zm-2.824 1.034c.17.182.267.451.29.808v.078h-2.074c.05-.364.17-.65.352-.853.182-.204.426-.302.721-.302.302 0 .54.088.71.275v-.006zm.517 3.542c.315-.149.584-.377.778-.66l-.585-.544c-.284.377-.74.597-1.222.588-.358 0-.653-.11-.886-.341a1.397 1.397 0 0 1-.403-.924h3.176v-.429c0-.748-.182-1.331-.54-1.738a1.935 1.935 0 0 0-1.534-.616 2.086 2.086 0 0 0-1.92 1.177 2.757 2.757 0 0 0-.285 1.265v.127c0 .704.216 1.264.648 1.694a2.297 2.297 0 0 0 1.682.632c.398 0 .767-.077 1.09-.231zM50.562 1.05h1.2c.397.006.693.105.891.286.2.188.302.452.302.792 0 .33-.114.583-.324.77-.216.188-.512.281-.898.281h-1.165l-.006-2.128zm2.58 5.462h1.216v-.055l-1.466-2.651c.352-.135.657-.364.88-.66.211-.286.313-.638.313-1.067 0-.622-.204-1.1-.613-1.425-.41-.33-.989-.495-1.745-.495h-2.295v6.353h1.136V4.065h1.262l1.312 2.447z" fill="#121212"/><path d="M42.5 2.756L40.91 4.23l.38 2.079a.532.532 0 0 1 0 .082c0 .11-.046.209-.17.209a.366.366 0 0 1-.182-.055l-1.96-.979-1.961.985a.402.402 0 0 1-.17.049c-.131 0-.188-.099-.188-.209l.006-.082.38-2.08-1.59-1.474c-.057-.054-.114-.12-.114-.197 0-.127.136-.176.25-.193l2.193-.303.983-1.891c.034-.078.114-.171.21-.171.103 0 .176.093.216.17l.983 1.892 2.193.303c.103.016.245.066.245.192 0 .078-.057.143-.114.199zm-8.835 0L32.074 4.23l.38 2.079a.532.532 0 0 1 0 .082c0 .11-.05.209-.17.209a.366.366 0 0 1-.182-.055l-1.96-.979-1.96.985a.402.402 0 0 1-.17.049c-.131 0-.188-.099-.188-.209l.006-.082.375-2.08-1.591-1.474c-.052-.054-.108-.12-.108-.197 0-.127.136-.176.244-.193l2.193-.303.983-1.891c.04-.078.114-.171.216-.171s.17.093.216.17l.983 1.892 2.193.303c.102.016.244.066.244.192 0 .078-.056.143-.113.199zm-8.835 0L23.239 4.23l.38 2.079a.532.532 0 0 1 0 .082c0 .11-.05.209-.176.209a.366.366 0 0 1-.17-.055l-1.966-.979-1.96.985a.404.404 0 0 1-.177.049c-.125 0-.181-.099-.181-.209l.005-.082.375-2.08-1.59-1.474c-.052-.054-.109-.12-.109-.197 0-.127.137-.176.245-.193l2.193-.303.983-1.891c.04-.078.114-.171.216-.171s.17.093.216.17l.983 1.892 2.193.303c.102.016.244.066.244.192 0 .078-.057.143-.113.199zm-8.836 0l-1.59 1.474.38 2.079a.532.532 0 0 1 0 .082c0 .11-.051.209-.176.209a.366.366 0 0 1-.17-.055l-1.966-.979-1.96.985a.404.404 0 0 1-.177.049c-.125 0-.182-.099-.182-.209l.006-.082.375-2.08-1.59-1.474c-.052-.054-.109-.12-.109-.197 0-.127.137-.176.245-.193l2.193-.303.983-1.891c.04-.078.113-.171.216-.171.102 0 .17.093.216.17l.982 1.892 2.194.303c.102.016.244.066.244.192 0 .078-.057.143-.114.199zm-8.835 0L5.57 4.23l.38 2.079a.532.532 0 0 1 0 .082c0 .11-.051.209-.176.209a.366.366 0 0 1-.176-.055l-1.96-.979-1.96.985A.404.404 0 0 1 1.5 6.6c-.13 0-.188-.099-.188-.209l.012-.082.375-2.08L.108 2.755C.057 2.702 0 2.635 0 2.558c0-.127.136-.176.244-.193l2.194-.303L3.42.171C3.46.093 3.534 0 3.636 0c.097 0 .17.093.21.17l.984 1.892 2.193.303c.108.016.25.066.25.192 0 .078-.057.143-.114.199z" fill="url(#a)"/></g><path fill="#ECECEC" d="M0 27H110V28H0z"/></g></svg>